<svg width="20" height="20" viewBox="0 0 20 20" fill="none" xmlns="http://www.w3.org/2000/svg">
<path fill-rule="evenodd" clip-rule="evenodd" d="M8.45421 15.8017C12.5121 15.8017 15.8017 12.5121 15.8017 8.45421C15.8017 4.39631 12.5121 1.10673 8.45421 1.10673C4.39631 1.10673 1.10673 4.39631 1.10673 8.45421C1.10673 12.5121 4.39631 15.8017 8.45421 15.8017ZM8.45421 16.9084C13.1233 16.9084 16.9084 13.1233 16.9084 8.45421C16.9084 3.78508 13.1233 0 8.45421 0C3.78508 0 0 3.78508 0 8.45421C0 13.1233 3.78508 16.9084 8.45421 16.9084ZM15.0525 15.8496C14.8324 15.6295 14.8324 15.2726 15.0525 15.0525C15.2726 14.8324 15.6295 14.8324 15.8496 15.0525L19.8349 19.0379C20.055 19.258 20.055 19.6148 19.8349 19.8349C19.6148 20.055 19.258 20.055 19.0379 19.8349L15.0525 15.8496Z" fill="#50B8E4"/>
<mask id="mask0_206_3275" style="mask-type:luminance" maskUnits="userSpaceOnUse" x="0" y="0" width="20" height="20">
<path fill-rule="evenodd" clip-rule="evenodd" d="M8.45421 15.8017C12.5121 15.8017 15.8017 12.5121 15.8017 8.45421C15.8017 4.39631 12.5121 1.10673 8.45421 1.10673C4.39631 1.10673 1.10673 4.39631 1.10673 8.45421C1.10673 12.5121 4.39631 15.8017 8.45421 15.8017ZM8.45421 16.9084C13.1233 16.9084 16.9084 13.1233 16.9084 8.45421C16.9084 3.78508 13.1233 0 8.45421 0C3.78508 0 0 3.78508 0 8.45421C0 13.1233 3.78508 16.9084 8.45421 16.9084ZM15.0525 15.8496C14.8324 15.6295 14.8324 15.2726 15.0525 15.0525C15.2726 14.8324 15.6295 14.8324 15.8496 15.0525L19.8349 19.0379C20.055 19.258 20.055 19.6148 19.8349 19.8349C19.6148 20.055 19.258 20.055 19.0379 19.8349L15.0525 15.8496Z" fill="white"/>
</mask>
<g mask="url(#mask0_206_3275)">
</g>
</svg>
