<svg width="69" height="70" viewBox="0 0 69 70" fill="none" xmlns="http://www.w3.org/2000/svg">
<path d="M9 7.82872L19.6019 0V15.367L9 23.5504V7.82872Z" fill="#007AE7"/>
<path d="M30.2389 38.5514L9 23.5504L19.6019 15.3669L40.9964 30.8051L30.2389 38.5514Z" fill="#01ABFE"/>
<path d="M19.6018 0.0935669L40.9318 15.339L51.5155 7.77984L51.5337 23.232L40.8673 30.7423L19.6018 15.4172V0.0935669Z" fill="#0FD1FE"/>
<path d="M30.3032 7.69602L41.0593 0.064209L51.5533 7.69602L40.929 15.3893L30.3032 7.69602Z" fill="#004DC5"/>
<path d="M0 68.6524V42.4896H4.09875V68.6524H0Z" fill="white"/>
<path d="M20.4628 61.1437C20.4628 60.4784 20.3231 59.9413 20.0448 59.5311C19.7656 59.1208 19.3864 58.7854 18.9074 58.5236C18.4274 58.263 17.8893 58.0511 17.2929 57.8879C16.6966 57.7247 16.0692 57.5649 15.4108 57.4085C14.541 57.1875 13.7101 56.9235 12.9178 56.6164C12.1256 56.3104 11.4284 55.8866 10.8263 55.3449C10.2241 54.8044 9.74415 54.1165 9.38732 53.2824C9.03048 52.4484 8.85207 51.4058 8.85207 50.1536C8.85207 48.7722 9.0586 47.5698 9.47071 46.5465C9.88281 45.5232 10.4433 44.6767 11.1521 44.0047C11.8599 43.3338 12.6909 42.8318 13.6451 42.4986C14.5992 42.1666 15.6717 42 16.8653 42C18.059 42 19.2575 42.1371 20.4628 42.4102C21.6671 42.6845 22.7046 43.0358 23.5744 43.4664V47.5721C22.4147 47.0372 21.3015 46.6496 20.2368 46.4083C19.1712 46.1669 18.1705 46.0468 17.2338 46.0468C15.884 46.0468 14.8436 46.3335 14.1134 46.9069C13.3823 47.4803 13.0177 48.3416 13.0177 49.4884C13.0177 50.1536 13.138 50.7009 13.3775 51.1304C13.617 51.5611 13.9437 51.9158 14.3558 52.1957C14.768 52.4756 15.2421 52.7011 15.7783 52.8699C16.3136 53.0399 16.8828 53.1963 17.4849 53.3391C18.4333 53.5737 19.3389 53.8445 20.2039 54.1505C21.0678 54.4565 21.8348 54.8837 22.5039 55.431C23.1729 55.9784 23.7024 56.6923 24.0932 57.5717C24.4839 58.4511 24.6788 59.5764 24.6788 60.9442C24.6788 62.3517 24.4558 63.571 24.0098 64.6011C23.5637 65.6312 22.9305 66.4812 22.1112 67.1532C21.2908 67.8252 20.296 68.3238 19.1246 68.649C17.9533 68.9743 16.6704 69.1375 15.2761 69.1375C14.0601 69.1375 12.8635 68.9969 11.6873 68.717C10.5102 68.4371 9.5318 68.0428 8.75122 67.5339V63.486C9.85566 64.047 10.932 64.4538 11.9802 64.7077C13.0284 64.9615 14.1105 65.0884 15.2256 65.0884C15.8724 65.0884 16.5085 65.0272 17.1329 64.9026C17.7574 64.7791 18.3179 64.5671 18.8143 64.2668C19.3108 63.9677 19.7093 63.5597 20.0109 63.0452C20.3115 62.5353 20.4628 61.8995 20.4628 61.1437Z" fill="white"/>
<path d="M42.0444 61.9845H33.6142L31.4218 68.6524H27.0554L35.9385 42.4896H39.6862L48.5702 68.6524H44.2368L42.0444 61.9845ZM37.7954 48.7858C37.0128 51.5225 36.3147 53.8094 35.7009 55.6475L34.9358 57.9763H40.7218L39.9567 55.6475C39.3497 53.7935 38.6516 51.5067 37.8623 48.7858H37.7954V48.7858Z" fill="white"/>
<path d="M58.2074 62.2588C58.6195 60.8377 58.9182 59.8246 59.1024 59.2183C59.2867 58.612 59.6736 57.37 60.2651 55.4934L64.4142 42.4907H68.7476L59.9974 68.6536H56.3166L47.5664 42.4896H51.9328L56.0819 55.4922C56.6734 57.3689 57.0603 58.6109 57.2446 59.2172C57.4288 59.8234 57.7265 60.8366 58.1396 62.2576H58.2074V62.2588Z" fill="white"/>
</svg>
