<?xml version="1.0" encoding="utf-8"?>
<!-- Generator: Adobe Illustrator 18.1.1, SVG Export Plug-In . SVG Version: 6.00 Build 0)  -->
<svg version="1.1" id="Layer_1" xmlns="http://www.w3.org/2000/svg" xmlns:xlink="http://www.w3.org/1999/xlink" x="0px" y="0px"
	 viewBox="-194 110 223 77.3" enable-background="new -194 110 223 77.3" xml:space="preserve">
<path fill="#007AE7" d="M-180,123.8l10.6-7.8v15.4l-10.6,8.2V123.8z"/>
<path fill="#01ABFE" d="M-158.8,154.6l-21.2-15l10.6-8.2l21.4,15.4L-158.8,154.6z"/>
<path fill="#0FD1FE" d="M-169.4,116.1l21.3,15.2l10.6-7.6l0,15.5l-10.7,7.5l-21.3-15.3V116.1z"/>
<path fill="#004DC5" d="M-158.7,123.7l10.8-7.6l10.5,7.6l-10.6,7.7L-158.7,123.7z"/>
<path fill="#0f2d6b" d="M-189,184.7v-26.2h4.1v26.2H-189z"/>
<path fill="#0f2d6b" d="M-168.5,177.1c0-0.7-0.1-1.2-0.4-1.6c-0.3-0.4-0.7-0.7-1.1-1c-0.5-0.3-1-0.5-1.6-0.6
	c-0.6-0.2-1.2-0.3-1.9-0.5c-0.9-0.2-1.7-0.5-2.5-0.8c-0.8-0.3-1.5-0.7-2.1-1.3c-0.6-0.5-1.1-1.2-1.4-2.1c-0.4-0.8-0.5-1.9-0.5-3.1
	c0-1.4,0.2-2.6,0.6-3.6c0.4-1,1-1.9,1.7-2.5c0.7-0.7,1.5-1.2,2.5-1.5c1-0.3,2-0.5,3.2-0.5c1.2,0,2.4,0.1,3.6,0.4
	c1.2,0.3,2.2,0.6,3.1,1.1v4.1c-1.2-0.5-2.3-0.9-3.3-1.2c-1.1-0.2-2.1-0.4-3-0.4c-1.3,0-2.4,0.3-3.1,0.9c-0.7,0.6-1.1,1.4-1.1,2.6
	c0,0.7,0.1,1.2,0.4,1.6c0.2,0.4,0.6,0.8,1,1.1c0.4,0.3,0.9,0.5,1.4,0.7c0.5,0.2,1.1,0.3,1.7,0.5c0.9,0.2,1.9,0.5,2.7,0.8
	c0.9,0.3,1.6,0.7,2.3,1.3c0.7,0.5,1.2,1.3,1.6,2.1c0.4,0.9,0.6,2,0.6,3.4c0,1.4-0.2,2.6-0.7,3.7c-0.4,1-1.1,1.9-1.9,2.6
	c-0.8,0.7-1.8,1.2-3,1.5c-1.2,0.3-2.5,0.5-3.8,0.5c-1.2,0-2.4-0.1-3.6-0.4c-1.2-0.3-2.2-0.7-2.9-1.2v-4c1.1,0.6,2.2,1,3.2,1.2
	c1,0.3,2.1,0.4,3.2,0.4c0.6,0,1.3-0.1,1.9-0.2c0.6-0.1,1.2-0.3,1.7-0.6c0.5-0.3,0.9-0.7,1.2-1.2
	C-168.7,178.5-168.5,177.9-168.5,177.1z"/>
<path fill="#0f2d6b" d="M-147,178h-8.4l-2.2,6.7h-4.4l8.9-26.2h3.7l8.9,26.2h-4.3L-147,178z M-151.2,164.8c-0.8,2.7-1.5,5-2.1,6.9
	l-0.8,2.3h5.8l-0.8-2.3C-149.7,169.8-150.3,167.5-151.2,164.8L-151.2,164.8z"/>
<path fill="#0f2d6b" d="M-130.8,178.3c0.4-1.4,0.7-2.4,0.9-3c0.2-0.6,0.6-1.8,1.2-3.7l4.1-13h4.3l-8.8,26.2h-3.7l-8.8-26.2h4.4
	l4.1,13c0.6,1.9,1,3.1,1.2,3.7C-131.6,175.8-131.3,176.8-130.8,178.3L-130.8,178.3L-130.8,178.3z"/>
<line fill="none" stroke="#0f2d6b" x1="-101.5" y1="116" x2="-101.5" y2="185"/>
<g>
	<path fill="#0f2d6b" d="M-81.3,118.6v13.8h-2.3v-13.8H-81.3z"/>
	<path fill="#0f2d6b" d="M-71.8,123.3c0.6,0.3,1,0.8,1.4,1.4c0.3,0.6,0.5,1.3,0.5,2.2v5.6h-1.9v-5.3c0-0.8-0.2-1.5-0.6-1.9
		s-1-0.7-1.7-0.7c-0.7,0-1.3,0.2-1.7,0.7s-0.6,1.1-0.6,1.9v5.3h-2V123h2v1.1c0.3-0.4,0.7-0.7,1.2-0.9c0.5-0.2,1-0.3,1.6-0.3
		C-73.1,122.8-72.4,123-71.8,123.3z"/>
	<path fill="#0f2d6b" d="M-65.2,124.6v5.2c0,0.4,0.1,0.6,0.2,0.8c0.2,0.2,0.4,0.2,0.8,0.2h1.2v1.6h-1.5c-0.9,0-1.6-0.2-2-0.6
		s-0.7-1.1-0.7-2v-5.2h-1.1V123h1.1v-2.3h2v2.3h2.3v1.6H-65.2z"/>
	<path fill="#0f2d6b" d="M-52.5,128.4h-7.2c0.1,0.8,0.3,1.4,0.8,1.8s1.1,0.7,1.8,0.7c1,0,1.8-0.4,2.2-1.3h2.1
		c-0.3,0.9-0.8,1.6-1.5,2.1c-0.7,0.6-1.7,0.8-2.8,0.8c-0.9,0-1.7-0.2-2.4-0.6c-0.7-0.4-1.3-1-1.7-1.7c-0.4-0.7-0.6-1.6-0.6-2.6
		s0.2-1.8,0.6-2.6c0.4-0.7,0.9-1.3,1.7-1.7c0.7-0.4,1.5-0.6,2.5-0.6c0.9,0,1.7,0.2,2.4,0.6c0.7,0.4,1.2,0.9,1.6,1.6
		c0.4,0.7,0.6,1.5,0.6,2.4C-52.5,127.8-52.5,128.1-52.5,128.4z M-54.5,126.8c0-0.7-0.3-1.3-0.8-1.7c-0.5-0.4-1.1-0.6-1.9-0.6
		c-0.7,0-1.2,0.2-1.7,0.6c-0.5,0.4-0.8,1-0.9,1.7H-54.5z"/>
	<path fill="#0f2d6b" d="M-48.6,119.7v12.7h-2v-12.7H-48.6z"/>
	<path fill="#0f2d6b" d="M-44.1,119.7v12.7h-2v-12.7H-44.1z"/>
	<path fill="#0f2d6b" d="M-41.4,121.4c-0.2-0.2-0.4-0.5-0.4-0.9c0-0.4,0.1-0.6,0.4-0.9c0.2-0.2,0.5-0.4,0.9-0.4
		c0.3,0,0.6,0.1,0.9,0.4c0.2,0.2,0.4,0.5,0.4,0.9c0,0.4-0.1,0.6-0.4,0.9c-0.2,0.2-0.5,0.4-0.9,0.4
		C-40.9,121.7-41.2,121.6-41.4,121.4z M-39.6,123v9.4h-2V123H-39.6z"/>
	<path fill="#0f2d6b" d="M-31.3,123.2c0.6,0.3,1,0.7,1.3,1.1V123h2v9.6c0,0.9-0.2,1.6-0.5,2.3c-0.4,0.7-0.9,1.2-1.6,1.6
		c-0.7,0.4-1.5,0.6-2.5,0.6c-1.3,0-2.3-0.3-3.2-0.9s-1.3-1.4-1.4-2.4h1.9c0.1,0.5,0.5,0.9,1,1.2c0.5,0.3,1.1,0.5,1.7,0.5
		c0.8,0,1.4-0.2,1.9-0.7c0.5-0.5,0.7-1.2,0.7-2.1V131c-0.3,0.4-0.8,0.8-1.3,1.1c-0.6,0.3-1.2,0.5-1.9,0.5c-0.8,0-1.6-0.2-2.2-0.6
		c-0.7-0.4-1.2-1-1.6-1.7c-0.4-0.7-0.6-1.6-0.6-2.5c0-0.9,0.2-1.8,0.6-2.5c0.4-0.7,0.9-1.3,1.6-1.7c0.7-0.4,1.4-0.6,2.2-0.6
		C-32.5,122.8-31.8,123-31.3,123.2z M-30.3,126c-0.3-0.5-0.6-0.8-1.1-1.1s-0.9-0.4-1.4-0.4c-0.5,0-1,0.1-1.4,0.4
		c-0.4,0.2-0.8,0.6-1.1,1.1c-0.3,0.5-0.4,1-0.4,1.7s0.1,1.2,0.4,1.7c0.3,0.5,0.6,0.9,1.1,1.1c0.4,0.3,0.9,0.4,1.4,0.4
		c0.5,0,1-0.1,1.4-0.4c0.4-0.3,0.8-0.6,1.1-1.1c0.3-0.5,0.4-1.1,0.4-1.7S-30.1,126.5-30.3,126z"/>
	<path fill="#0f2d6b" d="M-16.8,128.4H-24c0.1,0.8,0.3,1.4,0.8,1.8s1.1,0.7,1.8,0.7c1,0,1.8-0.4,2.2-1.3h2.1
		c-0.3,0.9-0.8,1.6-1.5,2.1c-0.7,0.6-1.7,0.8-2.8,0.8c-0.9,0-1.7-0.2-2.4-0.6c-0.7-0.4-1.3-1-1.7-1.7c-0.4-0.7-0.6-1.6-0.6-2.6
		s0.2-1.8,0.6-2.6c0.4-0.7,0.9-1.3,1.7-1.7c0.7-0.4,1.5-0.6,2.5-0.6c0.9,0,1.7,0.2,2.4,0.6c0.7,0.4,1.2,0.9,1.6,1.6
		c0.4,0.7,0.6,1.5,0.6,2.4C-16.8,127.8-16.8,128.1-16.8,128.4z M-18.8,126.8c0-0.7-0.3-1.3-0.8-1.7c-0.5-0.4-1.1-0.6-1.9-0.6
		c-0.7,0-1.2,0.2-1.7,0.6c-0.5,0.4-0.8,1-0.9,1.7H-18.8z"/>
	<path fill="#0f2d6b" d="M-8.1,123.3c0.6,0.3,1,0.8,1.4,1.4c0.3,0.6,0.5,1.3,0.5,2.2v5.6h-1.9v-5.3c0-0.8-0.2-1.5-0.6-1.9
		c-0.4-0.5-1-0.7-1.7-0.7c-0.7,0-1.3,0.2-1.7,0.7c-0.4,0.5-0.6,1.1-0.6,1.9v5.3h-2V123h2v1.1c0.3-0.4,0.7-0.7,1.2-0.9
		c0.5-0.2,1-0.3,1.6-0.3C-9.3,122.8-8.7,123-8.1,123.3z"/>
	<path fill="#0f2d6b" d="M-3.8,125.1c0.4-0.7,0.9-1.3,1.6-1.7c0.7-0.4,1.5-0.6,2.4-0.6c1.1,0,2.1,0.3,2.8,0.8
		c0.7,0.5,1.3,1.3,1.5,2.3H2.5c-0.2-0.5-0.4-0.8-0.8-1.1c-0.4-0.3-0.8-0.4-1.4-0.4c-0.8,0-1.4,0.3-1.9,0.8c-0.5,0.6-0.7,1.4-0.7,2.4
		c0,1,0.2,1.8,0.7,2.4c0.5,0.6,1.1,0.9,1.9,0.9c1.1,0,1.9-0.5,2.2-1.5h2.1c-0.3,1-0.8,1.7-1.5,2.3s-1.7,0.8-2.8,0.8
		c-0.9,0-1.7-0.2-2.4-0.6s-1.2-1-1.6-1.7c-0.4-0.7-0.6-1.6-0.6-2.6S-4.2,125.8-3.8,125.1z"/>
	<path fill="#0f2d6b" d="M15.1,128.4H7.9c0.1,0.8,0.3,1.4,0.8,1.8s1.1,0.7,1.8,0.7c1,0,1.8-0.4,2.2-1.3h2.1
		c-0.3,0.9-0.8,1.6-1.5,2.1c-0.7,0.6-1.7,0.8-2.8,0.8c-0.9,0-1.7-0.2-2.4-0.6c-0.7-0.4-1.3-1-1.7-1.7c-0.4-0.7-0.6-1.6-0.6-2.6
		s0.2-1.8,0.6-2.6c0.4-0.7,0.9-1.3,1.7-1.7c0.7-0.4,1.5-0.6,2.5-0.6c0.9,0,1.7,0.2,2.4,0.6c0.7,0.4,1.2,0.9,1.6,1.6
		c0.4,0.7,0.6,1.5,0.6,2.4C15.2,127.8,15.1,128.1,15.1,128.4z M13.1,126.8c0-0.7-0.3-1.3-0.8-1.7c-0.5-0.4-1.1-0.6-1.9-0.6
		c-0.7,0-1.2,0.2-1.7,0.6c-0.5,0.4-0.8,1-0.9,1.7H13.1z"/>
	<path fill="#0f2d6b" d="M-81.5,155.8c-0.7-0.3-1.3-0.8-1.7-1.4c-0.4-0.6-0.6-1.3-0.6-2.1h2.4c0.1,0.6,0.3,1.1,0.7,1.5
		c0.4,0.4,1,0.6,1.8,0.6c0.8,0,1.4-0.2,1.8-0.6c0.4-0.4,0.7-0.9,0.7-1.5c0-0.5-0.1-0.8-0.4-1.1c-0.3-0.3-0.6-0.5-1-0.7
		c-0.4-0.2-1-0.3-1.7-0.5c-0.9-0.2-1.6-0.5-2.2-0.7c-0.6-0.2-1-0.6-1.4-1.1c-0.4-0.5-0.6-1.2-0.6-2.1c0-0.8,0.2-1.5,0.6-2.1
		c0.4-0.6,1-1,1.7-1.4s1.5-0.5,2.5-0.5c1.3,0,2.4,0.3,3.3,1c0.9,0.7,1.3,1.6,1.4,2.7h-2.5c0-0.5-0.3-0.9-0.7-1.3s-1-0.5-1.7-0.5
		c-0.6,0-1.2,0.2-1.6,0.5c-0.4,0.3-0.6,0.8-0.6,1.4c0,0.4,0.1,0.8,0.4,1c0.3,0.3,0.6,0.5,1,0.6c0.4,0.2,0.9,0.3,1.6,0.5
		c0.9,0.3,1.7,0.5,2.2,0.8c0.6,0.3,1.1,0.6,1.5,1.2c0.4,0.5,0.6,1.2,0.6,2.1c0,0.7-0.2,1.4-0.6,2c-0.4,0.6-0.9,1.1-1.6,1.5
		s-1.6,0.6-2.5,0.6C-80,156.3-80.8,156.1-81.5,155.8z"/>
	<path fill="#0f2d6b" d="M-70.1,155.7c-0.7-0.4-1.3-1-1.7-1.7c-0.4-0.7-0.6-1.6-0.6-2.6c0-1,0.2-1.8,0.6-2.5c0.4-0.7,1-1.3,1.7-1.7
		c0.7-0.4,1.5-0.6,2.4-0.6c0.9,0,1.7,0.2,2.4,0.6c0.7,0.4,1.3,1,1.7,1.7c0.4,0.7,0.6,1.6,0.6,2.5c0,1-0.2,1.8-0.7,2.5
		c-0.4,0.7-1,1.3-1.8,1.7c-0.7,0.4-1.6,0.6-2.5,0.6C-68.6,156.3-69.4,156.1-70.1,155.7z M-66.3,154.3c0.4-0.2,0.8-0.6,1.1-1.1
		c0.3-0.5,0.4-1.1,0.4-1.7s-0.1-1.3-0.4-1.7c-0.3-0.5-0.6-0.8-1-1.1c-0.4-0.2-0.9-0.4-1.4-0.4s-1,0.1-1.4,0.4
		c-0.4,0.2-0.8,0.6-1,1.1c-0.3,0.5-0.4,1.1-0.4,1.7c0,1,0.3,1.8,0.8,2.4c0.5,0.6,1.2,0.8,2,0.8C-67.2,154.6-66.8,154.5-66.3,154.3z"
		/>
	<path fill="#0f2d6b" d="M-59,143.5v12.7h-2v-12.7H-59z"/>
	<path fill="#0f2d6b" d="M-47.9,146.7v9.4h-1.9V155c-0.3,0.4-0.7,0.7-1.2,0.9c-0.5,0.2-1,0.3-1.6,0.3c-0.7,0-1.4-0.2-2-0.5
		c-0.6-0.3-1-0.8-1.4-1.4c-0.3-0.6-0.5-1.3-0.5-2.2v-5.5h1.9v5.3c0,0.8,0.2,1.5,0.6,1.9c0.4,0.5,1,0.7,1.7,0.7
		c0.7,0,1.3-0.2,1.7-0.7c0.4-0.5,0.6-1.1,0.6-1.9v-5.3H-47.9z"/>
	<path fill="#0f2d6b" d="M-43,148.3v5.2c0,0.4,0.1,0.6,0.2,0.8c0.2,0.2,0.4,0.2,0.8,0.2h1.2v1.6h-1.5c-0.9,0-1.6-0.2-2-0.6
		c-0.5-0.4-0.7-1.1-0.7-2v-5.2h-1.1v-1.6h1.1v-2.3h2v2.3h2.3v1.6H-43z"/>
	<path fill="#0f2d6b" d="M-38.8,145.1c-0.2-0.2-0.4-0.5-0.4-0.9c0-0.4,0.1-0.6,0.4-0.9c0.2-0.2,0.5-0.4,0.9-0.4
		c0.3,0,0.6,0.1,0.9,0.4c0.2,0.2,0.4,0.5,0.4,0.9c0,0.4-0.1,0.6-0.4,0.9c-0.2,0.2-0.5,0.4-0.9,0.4
		C-38.3,145.5-38.6,145.4-38.8,145.1z M-37,146.7v9.4h-2v-9.4H-37z"/>
	<path fill="#0f2d6b" d="M-32.7,155.7c-0.7-0.4-1.3-1-1.7-1.7c-0.4-0.7-0.6-1.6-0.6-2.6c0-1,0.2-1.8,0.6-2.5c0.4-0.7,1-1.3,1.7-1.7
		c0.7-0.4,1.5-0.6,2.4-0.6c0.9,0,1.7,0.2,2.4,0.6c0.7,0.4,1.3,1,1.7,1.7c0.4,0.7,0.6,1.6,0.6,2.5c0,1-0.2,1.8-0.7,2.5
		c-0.4,0.7-1,1.3-1.8,1.7c-0.7,0.4-1.6,0.6-2.5,0.6C-31.2,156.3-32,156.1-32.7,155.7z M-28.9,154.3c0.4-0.2,0.8-0.6,1.1-1.1
		c0.3-0.5,0.4-1.1,0.4-1.7s-0.1-1.3-0.4-1.7c-0.3-0.5-0.6-0.8-1-1.1c-0.4-0.2-0.9-0.4-1.4-0.4c-0.5,0-1,0.1-1.4,0.4
		c-0.4,0.2-0.8,0.6-1,1.1c-0.3,0.5-0.4,1.1-0.4,1.7c0,1,0.3,1.8,0.8,2.4c0.5,0.6,1.2,0.8,2,0.8C-29.8,154.6-29.4,154.5-28.9,154.3z"
		/>
	<path fill="#0f2d6b" d="M-16.8,147c0.6,0.3,1,0.8,1.4,1.4c0.3,0.6,0.5,1.3,0.5,2.2v5.6h-1.9v-5.3c0-0.8-0.2-1.5-0.6-1.9
		c-0.4-0.5-1-0.7-1.7-0.7c-0.7,0-1.3,0.2-1.7,0.7c-0.4,0.5-0.6,1.1-0.6,1.9v5.3h-2v-9.4h2v1.1c0.3-0.4,0.7-0.7,1.2-0.9
		c0.5-0.2,1-0.3,1.6-0.3C-18,146.6-17.3,146.7-16.8,147z"/>
	<path fill="#0f2d6b" d="M-4.6,147c0.6-0.3,1.2-0.4,1.9-0.4c0.8,0,1.6,0.2,2.3,0.6c0.7,0.4,1.2,1,1.6,1.7c0.4,0.7,0.6,1.6,0.6,2.5
		c0,0.9-0.2,1.8-0.6,2.5s-0.9,1.3-1.6,1.7c-0.7,0.4-1.4,0.6-2.2,0.6c-0.7,0-1.4-0.1-1.9-0.4c-0.6-0.3-1-0.7-1.3-1.1v1.4h-2v-12.7h2
		v4.6C-5.7,147.7-5.2,147.3-4.6,147z M-0.7,149.7c-0.3-0.5-0.6-0.8-1.1-1.1c-0.4-0.2-0.9-0.4-1.4-0.4c-0.5,0-1,0.1-1.4,0.4
		c-0.4,0.3-0.8,0.6-1.1,1.1s-0.4,1-0.4,1.7s0.1,1.2,0.4,1.7c0.3,0.5,0.6,0.9,1.1,1.1c0.4,0.3,0.9,0.4,1.4,0.4c0.5,0,1-0.1,1.4-0.4
		c0.4-0.3,0.8-0.6,1.1-1.1c0.3-0.5,0.4-1.1,0.4-1.7S-0.4,150.2-0.7,149.7z"/>
	<path fill="#0f2d6b" d="M12.1,146.7l-5.8,13.9h-2l1.9-4.6l-3.7-9.3h2.2l2.7,7.2l2.8-7.2H12.1z"/>
	<path fill="#0f2d6b" d="M-75.3,177.3H-81l-1,2.8h-2.4l4.9-13.8h2.6l4.9,13.8h-2.4L-75.3,177.3z M-75.9,175.5l-2.2-6.4l-2.3,6.4
		H-75.9z"/>
	<path fill="#0f2d6b" d="M-66,172.3h-1.7v7.8h-2v-7.8h-1.1v-1.6h1.1V170c0-1.1,0.3-1.9,0.9-2.4c0.6-0.5,1.5-0.7,2.7-0.7v1.6
		c-0.6,0-1,0.1-1.2,0.3s-0.4,0.6-0.4,1.2v0.7h1.7V172.3z"/>
	<path fill="#0f2d6b" d="M-61.2,170.9c0.5-0.3,1-0.4,1.7-0.4v2H-60c-0.8,0-1.3,0.2-1.7,0.6s-0.6,1.1-0.6,2v5h-2v-9.4h2v1.4
		C-62.1,171.6-61.7,171.2-61.2,170.9z"/>
	<path fill="#0f2d6b" d="M-57.6,169.1c-0.2-0.2-0.4-0.5-0.4-0.9s0.1-0.7,0.4-0.9s0.5-0.4,0.9-0.4c0.3,0,0.6,0.1,0.9,0.4
		s0.4,0.5,0.4,0.9s-0.1,0.7-0.4,0.9s-0.5,0.4-0.9,0.4C-57.1,169.5-57.4,169.3-57.6,169.1z M-55.8,170.7v9.4h-2v-9.4H-55.8z"/>
	<path fill="#0f2d6b" d="M-53.3,172.8c0.4-0.7,0.9-1.3,1.6-1.7s1.5-0.6,2.4-0.6c1.1,0,2.1,0.3,2.8,0.8c0.7,0.5,1.3,1.3,1.5,2.3H-47
		c-0.2-0.5-0.4-0.8-0.8-1.1c-0.4-0.3-0.8-0.4-1.4-0.4c-0.8,0-1.4,0.3-1.9,0.8c-0.5,0.6-0.7,1.4-0.7,2.4c0,1,0.2,1.8,0.7,2.4
		c0.5,0.6,1.1,0.9,1.9,0.9c1.1,0,1.9-0.5,2.2-1.5h2.1c-0.3,1-0.8,1.7-1.5,2.3s-1.7,0.8-2.8,0.8c-0.9,0-1.7-0.2-2.4-0.6
		c-0.7-0.4-1.2-1-1.6-1.7c-0.4-0.7-0.6-1.6-0.6-2.6C-53.9,174.4-53.7,173.6-53.3,172.8z"/>
	<path fill="#0f2d6b" d="M-43,172.9c0.4-0.7,0.9-1.3,1.6-1.7c0.7-0.4,1.4-0.6,2.2-0.6c0.7,0,1.4,0.1,1.9,0.4c0.6,0.3,1,0.7,1.3,1.1
		v-1.4h2v9.4h-2v-1.4c-0.3,0.4-0.8,0.8-1.4,1.1c-0.6,0.3-1.2,0.4-2,0.4c-0.8,0-1.6-0.2-2.2-0.6c-0.7-0.4-1.2-1-1.6-1.7
		c-0.4-0.7-0.6-1.6-0.6-2.5C-43.6,174.4-43.4,173.6-43,172.9z M-36.3,173.7c-0.3-0.5-0.6-0.8-1.1-1.1c-0.4-0.3-0.9-0.4-1.4-0.4
		c-0.5,0-1,0.1-1.4,0.4s-0.8,0.6-1.1,1.1c-0.3,0.5-0.4,1-0.4,1.7c0,0.7,0.1,1.2,0.4,1.7s0.6,0.9,1.1,1.1c0.4,0.3,0.9,0.4,1.4,0.4
		c0.5,0,1-0.1,1.4-0.4s0.8-0.6,1.1-1.1c0.3-0.5,0.4-1.1,0.4-1.7C-35.9,174.8-36,174.2-36.3,173.7z"/>
	<path fill="#0f2d6b" d="M-14.7,166.2l-5.2,13.9h-2.6l-5.2-13.9h2.4l4.1,11.5l4.1-11.5H-14.7z"/>
	<path fill="#0f2d6b" d="M-4.5,176.1h-7.2c0.1,0.8,0.3,1.4,0.8,1.8c0.5,0.5,1.1,0.7,1.8,0.7c1,0,1.8-0.4,2.2-1.3h2.1
		c-0.3,0.9-0.8,1.6-1.5,2.1c-0.7,0.6-1.7,0.8-2.8,0.8c-0.9,0-1.7-0.2-2.4-0.6c-0.7-0.4-1.3-1-1.7-1.7c-0.4-0.7-0.6-1.6-0.6-2.6
		c0-1,0.2-1.8,0.6-2.6c0.4-0.7,0.9-1.3,1.7-1.7c0.7-0.4,1.5-0.6,2.5-0.6c0.9,0,1.7,0.2,2.4,0.6c0.7,0.4,1.2,0.9,1.6,1.6
		s0.6,1.5,0.6,2.4C-4.4,175.5-4.4,175.9-4.5,176.1z M-6.4,174.6c0-0.7-0.3-1.3-0.8-1.7s-1.1-0.7-1.9-0.7c-0.7,0-1.2,0.2-1.7,0.6
		c-0.5,0.4-0.8,1-0.9,1.7H-6.4z"/>
	<path fill="#0f2d6b" d="M0.6,170.9c0.5-0.3,1-0.4,1.7-0.4v2H1.8c-0.8,0-1.3,0.2-1.7,0.6s-0.6,1.1-0.6,2v5h-2v-9.4h2v1.4
		C-0.3,171.6,0.1,171.2,0.6,170.9z"/>
	<path fill="#0f2d6b" d="M4.2,169.1c-0.2-0.2-0.4-0.5-0.4-0.9s0.1-0.7,0.4-0.9s0.5-0.4,0.9-0.4c0.3,0,0.6,0.1,0.9,0.4
		s0.4,0.5,0.4,0.9s-0.1,0.7-0.4,0.9s-0.5,0.4-0.9,0.4C4.7,169.5,4.4,169.3,4.2,169.1z M6,170.7v9.4h-2v-9.4H6z"/>
	<path fill="#0f2d6b" d="M12.5,172.3h-1.7v7.8h-2v-7.8H7.7v-1.6h1.1V170c0-1.1,0.3-1.9,0.9-2.4c0.6-0.5,1.5-0.7,2.7-0.7v1.6
		c-0.6,0-1,0.1-1.2,0.3s-0.4,0.6-0.4,1.2v0.7h1.7V172.3z"/>
	<path fill="#0f2d6b" d="M22.8,170.7L17,184.6h-2l1.9-4.6l-3.7-9.3h2.2l2.7,7.2l2.8-7.2H22.8z"/>
</g>
</svg>
