<svg width="683" height="274" viewBox="0 0 683 274" fill="none" xmlns="http://www.w3.org/2000/svg">
<path d="M172.335 49.2289L187.518 103.446L125.901 80.0874L110.761 22.7421L172.335 49.2289Z" fill="#004DC5"/>
<path d="M18.5965 84.8683L110.761 22.7421L125.901 80.0875L32.2372 141.645L18.5965 84.8683Z" fill="#007AE7"/>
<path d="M186.893 103.209L93.7115 165.378L122.358 273.446L58.242 249.14L32.3622 141.693L125.918 79.6654L187.16 102.881L187.018 103.256L186.893 103.209Z" fill="#0FD1FE"/>
<path d="M140.317 134.442L154.294 189.202L122.358 273.446L93.1944 165.611L140.317 134.442Z" fill="#011B44"/>
<path d="M625.135 100.414C636.648 100.414 646.749 102.664 655.436 107.165C664.228 111.666 670.979 118.103 675.689 126.476C680.504 134.745 682.911 144.374 682.911 155.364C682.911 166.354 680.504 175.983 675.689 184.252C670.979 192.416 664.228 198.748 655.436 203.249C646.749 207.75 636.648 210 625.135 210H586.827V100.414H625.135ZM624.35 191.317C635.863 191.317 644.76 188.177 651.04 181.897C657.32 175.617 660.46 166.773 660.46 155.364C660.46 143.955 657.32 135.059 651.04 128.674C644.76 122.185 635.863 118.94 624.35 118.94H608.807V191.317H624.35Z" fill="white"/>
<path d="M514.426 211.099C504.168 211.099 494.748 208.692 486.166 203.877C477.583 199.062 470.78 192.416 465.756 183.938C460.732 175.355 458.22 165.674 458.22 154.893C458.22 144.217 460.732 134.64 465.756 126.162C470.78 117.579 477.583 110.881 486.166 106.066C494.748 101.251 504.168 98.844 514.426 98.844C524.788 98.844 534.208 101.251 542.686 106.066C551.268 110.881 558.019 117.579 562.939 126.162C567.963 134.64 570.475 144.217 570.475 154.893C570.475 165.674 567.963 175.355 562.939 183.938C558.019 192.416 551.268 199.062 542.686 203.877C534.103 208.692 524.683 211.099 514.426 211.099ZM514.426 191.474C521.02 191.474 526.829 190.009 531.853 187.078C536.877 184.043 540.802 179.751 543.628 174.204C546.454 168.657 547.867 162.22 547.867 154.893C547.867 147.566 546.454 141.182 543.628 135.739C540.802 130.192 536.877 125.953 531.853 123.022C526.829 120.091 521.02 118.626 514.426 118.626C507.832 118.626 501.97 120.091 496.842 123.022C491.818 125.953 487.893 130.192 485.067 135.739C482.241 141.182 480.828 147.566 480.828 154.893C480.828 162.22 482.241 168.657 485.067 174.204C487.893 179.751 491.818 184.043 496.842 187.078C501.97 190.009 507.832 191.474 514.426 191.474Z" fill="white"/>
<path d="M337.71 155.05C337.71 144.269 340.117 134.64 344.932 126.162C349.851 117.579 356.498 110.933 364.871 106.223C373.349 101.408 382.821 99.001 393.288 99.001C405.534 99.001 416.262 102.141 425.473 108.421C434.684 114.701 441.121 123.388 444.784 134.483H419.507C416.995 129.25 413.436 125.325 408.831 122.708C404.33 120.091 399.097 118.783 393.131 118.783C386.746 118.783 381.042 120.301 376.018 123.336C371.099 126.267 367.226 130.453 364.4 135.896C361.679 141.339 360.318 147.723 360.318 155.05C360.318 162.272 361.679 168.657 364.4 174.204C367.226 179.647 371.099 183.886 376.018 186.921C381.042 189.852 386.746 191.317 393.131 191.317C399.097 191.317 404.33 190.009 408.831 187.392C413.436 184.671 416.995 180.693 419.507 175.46H444.784C441.121 186.659 434.684 195.399 425.473 201.679C416.367 207.854 405.639 210.942 393.288 210.942C382.821 210.942 373.349 208.587 364.871 203.877C356.498 199.062 349.851 192.416 344.932 183.938C340.117 175.46 337.71 165.831 337.71 155.05Z" fill="white"/>
<path d="M321.332 100.414V210H299.352V100.414H321.332Z" fill="white"/>
<path d="M283.746 134.326C283.746 140.187 282.333 145.682 279.507 150.811C276.786 155.94 272.442 160.074 266.476 163.214C260.615 166.354 253.183 167.924 244.182 167.924H225.813V210H203.833V100.414H244.182C252.66 100.414 259.882 101.879 265.848 104.81C271.814 107.741 276.262 111.77 279.193 116.899C282.228 122.028 283.746 127.837 283.746 134.326ZM243.24 150.183C249.311 150.183 253.811 148.822 256.742 146.101C259.673 143.275 261.138 139.35 261.138 134.326C261.138 123.65 255.172 118.312 243.24 118.312H225.813V150.183H243.24Z" fill="white"/>
<path d="M495.079 261.922C494.765 262.447 494.345 262.971 493.715 263.286C493.086 263.601 492.246 263.811 491.197 263.811H488.994V268.847H487V256.571H491.197C492.141 256.571 492.981 256.781 493.61 257.096C494.24 257.41 494.765 257.83 495.079 258.46C495.394 259.089 495.604 259.614 495.604 260.348C495.499 260.768 495.289 261.292 495.079 261.922ZM492.876 261.607C493.296 261.292 493.401 260.768 493.401 260.138C493.401 258.774 492.666 258.145 491.092 258.145H488.889V262.132H491.092C491.932 262.132 492.456 261.922 492.876 261.607Z" fill="white"/>
<path d="M499.172 268.322C498.437 267.902 497.808 267.273 497.388 266.538C496.968 265.804 496.758 264.86 496.758 263.915C496.758 262.971 496.968 262.027 497.388 261.292C497.808 260.558 498.437 259.928 499.172 259.509C499.906 259.089 500.745 258.879 501.69 258.879C502.634 258.879 503.474 259.089 504.208 259.509C504.943 259.928 505.572 260.558 505.992 261.292C506.412 262.027 506.621 262.971 506.621 263.915C506.621 264.86 506.412 265.804 505.992 266.538C505.572 267.273 504.943 267.902 504.208 268.322C503.474 268.742 502.634 268.952 501.69 268.952C500.745 268.952 499.906 268.742 499.172 268.322ZM503.054 266.748C503.474 266.538 503.893 266.119 504.208 265.594C504.523 265.07 504.628 264.545 504.628 263.811C504.628 263.076 504.523 262.551 504.208 262.027C503.893 261.502 503.579 261.188 503.159 260.873C502.739 260.663 502.214 260.453 501.69 260.453C501.165 260.453 500.641 260.558 500.221 260.873C499.801 261.083 499.381 261.502 499.172 262.027C498.962 262.551 498.752 263.076 498.752 263.811C498.752 264.86 499.067 265.699 499.591 266.224C500.116 266.748 500.85 267.063 501.585 267.063C502.11 267.168 502.634 267.063 503.054 266.748Z" fill="white"/>
<path d="M521.836 258.984L518.793 268.742H516.694L514.701 261.502L512.707 268.742H510.609L507.566 258.984H509.664L511.658 266.853L513.756 258.984H515.855L517.849 266.748L519.842 258.984H521.836Z" fill="white"/>
<path d="M532.223 264.65H524.774C524.879 265.384 525.088 266.014 525.613 266.538C526.138 267.063 526.767 267.273 527.502 267.273C528.551 267.273 529.39 266.853 529.81 265.909H532.014C531.699 266.853 531.174 267.588 530.44 268.112C529.705 268.637 528.656 268.952 527.607 268.952C526.662 268.952 525.823 268.742 525.088 268.322C524.354 267.902 523.724 267.273 523.305 266.538C522.885 265.804 522.675 264.86 522.675 263.915C522.675 262.866 522.885 262.027 523.305 261.292C523.724 260.558 524.249 259.928 524.984 259.509C525.718 259.089 526.557 258.879 527.502 258.879C528.446 258.879 529.286 259.089 529.915 259.509C530.65 259.928 531.174 260.453 531.594 261.188C532.014 261.922 532.223 262.761 532.223 263.706C532.223 264.02 532.223 264.335 532.223 264.65ZM530.125 262.971C530.125 262.237 529.81 261.607 529.285 261.188C528.761 260.768 528.131 260.558 527.397 260.558C526.662 260.558 526.138 260.768 525.613 261.188C525.088 261.607 524.774 262.237 524.774 262.971H530.125Z" fill="white"/>
<path d="M537.47 259.299C537.994 258.984 538.519 258.879 539.254 258.879V260.978H538.729C537.889 260.978 537.365 261.188 536.945 261.607C536.525 262.027 536.316 262.656 536.316 263.706V268.847H534.322V259.089H536.316V260.558C536.526 259.928 536.945 259.509 537.47 259.299Z" fill="white"/>
<path d="M549.851 264.65H542.401C542.506 265.384 542.716 266.014 543.241 266.538C543.765 267.063 544.395 267.273 545.13 267.273C546.179 267.273 547.018 266.853 547.438 265.909H549.641C549.327 266.853 548.802 267.588 548.067 268.112C547.333 268.637 546.284 268.952 545.234 268.952C544.29 268.952 543.451 268.742 542.716 268.322C541.982 267.902 541.352 267.273 540.933 266.538C540.513 265.804 540.303 264.86 540.303 263.915C540.303 262.866 540.513 262.027 540.933 261.292C541.352 260.558 541.877 259.928 542.611 259.509C543.346 259.089 544.185 258.879 545.13 258.879C546.074 258.879 546.913 259.089 547.543 259.509C548.277 259.928 548.802 260.453 549.222 261.188C549.641 261.922 549.851 262.761 549.851 263.706C549.956 264.02 549.956 264.335 549.851 264.65ZM547.858 262.971C547.858 262.237 547.543 261.607 547.018 261.188C546.494 260.768 545.864 260.558 545.13 260.558C544.395 260.558 543.87 260.768 543.346 261.188C542.821 261.607 542.506 262.237 542.506 262.971H547.858Z" fill="white"/>
<path d="M551.845 261.188C552.265 260.453 552.789 259.824 553.524 259.404C554.258 258.984 554.993 258.774 555.832 258.774C556.462 258.774 557.091 258.879 557.721 259.194C558.35 259.509 558.875 259.824 559.19 260.348V255.627H561.183V268.742H559.19V267.273C558.875 267.798 558.35 268.112 557.826 268.427C557.196 268.742 556.567 268.847 555.832 268.847C554.993 268.847 554.153 268.637 553.524 268.217C552.894 267.798 552.265 267.168 551.845 266.434C551.425 265.699 551.215 264.755 551.215 263.811C551.32 262.866 551.53 262.027 551.845 261.188ZM558.875 262.132C558.56 261.607 558.245 261.292 557.826 260.978C557.406 260.768 556.881 260.558 556.357 260.558C555.832 260.558 555.307 260.663 554.888 260.978C554.468 261.188 554.048 261.607 553.839 262.132C553.524 262.656 553.419 263.181 553.419 263.915C553.419 264.545 553.524 265.174 553.839 265.699C554.153 266.224 554.468 266.643 554.888 266.853C555.307 267.063 555.832 267.273 556.357 267.273C556.881 267.273 557.406 267.168 557.826 266.853C558.245 266.643 558.665 266.224 558.875 265.699C559.19 265.174 559.295 264.65 559.295 263.915C559.295 263.181 559.085 262.656 558.875 262.132Z" fill="white"/>
<path d="M571.991 259.299C572.62 258.984 573.25 258.879 573.985 258.879C574.824 258.879 575.663 259.089 576.293 259.509C577.027 259.928 577.552 260.558 577.972 261.292C578.391 262.027 578.601 262.971 578.601 263.915C578.601 264.86 578.391 265.804 577.972 266.538C577.552 267.273 577.027 267.902 576.293 268.322C575.558 268.742 574.824 268.952 573.985 268.952C573.25 268.952 572.516 268.847 571.991 268.532C571.361 268.217 570.942 267.902 570.627 267.378V268.742H568.633V255.627H570.627V260.453C570.942 259.928 571.361 259.614 571.991 259.299ZM576.083 262.132C575.768 261.607 575.454 261.292 575.034 260.978C574.614 260.768 574.089 260.558 573.565 260.558C573.04 260.558 572.62 260.663 572.096 260.978C571.676 261.188 571.256 261.607 571.047 262.132C570.732 262.656 570.627 263.181 570.627 263.915C570.627 264.545 570.732 265.174 571.047 265.699C571.361 266.224 571.676 266.538 572.096 266.853C572.516 267.063 573.04 267.273 573.565 267.273C574.089 267.273 574.614 267.168 575.034 266.853C575.454 266.538 575.873 266.224 576.083 265.699C576.398 265.174 576.503 264.65 576.503 263.915C576.503 263.181 576.398 262.551 576.083 262.132Z" fill="white"/>
<path d="M589.304 258.984L583.323 273.358H581.224L583.218 268.637L579.336 259.089H581.539L584.267 266.538L587.1 259.089H589.304V258.984Z" fill="white"/>
<path d="M597.601 267.378V238.525H602.113V267.378H597.601Z" fill="white"/>
<path d="M620.161 258.984C620.161 258.25 620.056 257.62 619.741 257.2C619.426 256.781 619.006 256.466 618.482 256.151C617.957 255.837 617.433 255.627 616.698 255.522C616.069 255.312 615.334 255.207 614.6 254.997C613.655 254.787 612.711 254.473 611.871 254.158C611.032 253.843 610.193 253.423 609.563 252.689C608.933 252.164 608.304 251.325 607.989 250.381C607.569 249.541 607.464 248.282 607.464 246.918C607.464 245.344 607.674 244.085 608.094 242.931C608.514 241.882 609.143 240.833 609.983 240.203C610.717 239.469 611.662 238.839 612.711 238.525C613.76 238.21 614.914 238 616.278 238C617.642 238 618.901 238.105 620.266 238.42C621.63 238.734 622.679 239.049 623.728 239.679V244.19C622.364 243.666 621.21 243.246 620.056 242.826C618.797 242.617 617.747 242.407 616.803 242.407C615.334 242.407 614.18 242.721 613.34 243.351C612.606 243.98 612.081 244.925 612.081 246.184C612.081 246.918 612.186 247.548 612.501 247.967C612.711 248.387 613.131 248.807 613.55 249.227C613.97 249.541 614.495 249.751 615.124 249.961C615.649 250.171 616.383 250.276 617.013 250.486C617.957 250.695 619.111 251.01 619.951 251.325C620.895 251.64 621.735 252.059 622.469 252.794C623.204 253.318 623.833 254.263 624.253 255.102C624.672 256.046 624.882 257.305 624.882 258.879C624.882 260.453 624.673 261.712 624.148 262.971C623.728 264.02 622.889 265.07 622.049 265.804C621.21 266.538 620.056 267.168 618.797 267.483C617.538 267.797 616.069 268.007 614.6 268.007C613.236 268.007 611.976 267.902 610.612 267.588C609.248 267.273 608.199 266.853 607.464 266.224V261.922C608.724 262.551 609.878 262.971 611.032 263.286C612.081 263.601 613.34 263.706 614.6 263.706C615.229 263.706 616.069 263.601 616.698 263.496C617.328 263.391 618.062 263.181 618.587 262.866C619.111 262.551 619.531 262.132 619.951 261.502C619.951 260.558 620.161 259.928 620.161 258.984Z" fill="white"/>
<path d="M643.874 260.033H634.641L632.227 267.378H627.401L637.159 238.525H641.251L651.009 267.378H646.287L643.874 260.033ZM639.257 245.449C638.418 248.387 637.579 250.905 636.949 253.004L636.11 255.522H642.51L641.671 253.004C640.831 251.01 640.202 248.492 639.257 245.449Z" fill="white"/>
<path d="M661.712 260.348C662.131 258.774 662.446 257.725 662.656 257.095C662.866 256.466 663.286 255.102 664.02 253.004L668.532 238.734H673.254L663.6 267.588H659.508L649.855 238.734H654.682L659.194 253.004C659.823 255.102 660.243 256.466 660.557 257.095C660.767 257.62 661.082 258.669 661.712 260.348Z" fill="white"/>
<path d="M675.772 267.378C678.032 267.378 679.864 265.546 679.864 263.286C679.864 261.026 678.032 259.194 675.772 259.194C673.512 259.194 671.68 261.026 671.68 263.286C671.68 265.546 673.512 267.378 675.772 267.378Z" fill="white" stroke="white" stroke-width="0.5"/>
<path d="M675.457 262.971C675.667 262.971 675.877 262.971 675.982 262.866C676.087 262.761 676.192 262.656 676.192 262.341C676.192 262.132 676.087 261.922 675.982 261.922C675.877 261.817 675.667 261.817 675.457 261.817H674.933V263.076H675.457M674.933 263.81V265.594H673.673V260.873H675.562C676.192 260.873 676.611 260.977 676.926 261.187C677.241 261.397 677.346 261.712 677.346 262.237C677.346 262.551 677.241 262.761 677.136 262.971C677.031 263.181 676.716 263.286 676.401 263.391C676.611 263.391 676.716 263.496 676.821 263.705C676.926 263.81 677.136 264.02 677.241 264.335L677.87 265.699H676.611L675.982 264.545C675.877 264.335 675.772 264.125 675.667 264.02C675.562 263.915 675.352 263.915 675.142 263.915H674.933" fill="white"/>
</svg>
