<svg xmlns="http://www.w3.org/2000/svg" version="1.1" xmlns:xlink="http://www.w3.org/1999/xlink" xmlns:svgjs="http://svgjs.dev/svgjs" width="1500" height="393" viewBox="0 0 1500 393"><g transform="matrix(1,0,0,1,-0.9090909090909918,0.6461501972807184)"><svg viewBox="0 0 396 104" data-background-color="#282634" preserveAspectRatio="xMidYMid meet" height="393" width="1500" xmlns="http://www.w3.org/2000/svg" xmlns:xlink="http://www.w3.org/1999/xlink"><g id="tight-bounds" transform="matrix(1,0,0,1,0.2400000000000091,-0.17099140080711095)"><svg viewBox="0 0 395.52 104.3419828016142" height="104.3419828016142" width="395.52"><g><svg viewBox="0 0 591.2500121282045 155.9774438636107" height="104.3419828016142" width="395.52"><g><rect width="6.401072103069211" height="120.58256237148363" x="172.57220677102742" y="17.697440746063528" fill="#ff4057" opacity="1" stroke-width="0" stroke="transparent" fill-opacity="1" class="rect-qz-0" data-fill-palette-color="primary" rx="1%" id="qz-0" data-palette-color="#ff4057"></rect></g><g transform="matrix(1,0,0,1,195.73001212820452,17.997397368878154)"><svg viewBox="0 0 395.52 119.98264912585438" height="119.98264912585438" width="395.52"><g id="textblocktransform"><svg viewBox="0 0 395.52 119.98264912585438" height="119.98264912585438" width="395.52" id="textblock"><g><svg viewBox="0 0 395.52 70.9802489626556" height="70.9802489626556" width="395.52"><g transform="matrix(1,0,0,1,0,0)"><svg width="395.52" viewBox="3 -34.3 192.79 34.599999999999994" height="70.9802489626556" data-palette-color="#ff4057"><path d="M28.1-13L22.5 0 18.3 0 12.65-12.85Q12.4-13.4 12.03-14.35 11.65-15.3 11.2-16.45 10.75-17.6 10.25-18.88 9.75-20.15 9.3-21.45L9.3-21.45Q9.3-20.15 9.28-18.88 9.25-17.6 9.2-16.48 9.15-15.35 9.13-14.48 9.1-13.6 9.1-13.1L9.1-13.1 8.6 0 3 0 5-33.95 9.65-33.95 18.2-12.75Q18.65-11.6 19.23-10.25 19.8-8.9 20.3-7.6L20.3-7.6Q20.8-8.9 21.35-10.23 21.9-11.55 22.4-12.75L22.4-12.75 31-33.95 35.55-33.95 37.55 0 32 0 31.45-12.95Q31.4-14.2 31.33-16.53 31.25-18.85 31.2-21.25L31.2-21.25Q30.75-20 30.28-18.75 29.8-17.5 29.4-16.4 29-15.3 28.65-14.4 28.3-13.5 28.1-13L28.1-13ZM40.3 0L53.3-33.85 58-33.85 71.05 0 64.7 0 61.6-8.85 49.4-8.85 46.2 0 40.3 0ZM51-13.25L60.05-13.25Q58.45-17.75 57.3-21.43 56.15-25.1 55.55-27.2L55.55-27.2Q54.85-24.95 53.7-21.3 52.55-17.65 51-13.25L51-13.25ZM94.7-30.7L91.65-27.05Q90.45-28.35 89.12-29.03 87.8-29.7 86.05-29.7L86.05-29.7Q83.9-29.7 82.42-28.73 80.95-27.75 80.05-26.03 79.15-24.3 78.75-22 78.35-19.7 78.35-17.05L78.35-17.05Q78.35-14.4 78.72-12.1 79.1-9.8 80.02-8.05 80.95-6.3 82.52-5.3 84.1-4.3 86.5-4.3L86.5-4.3Q87.65-4.3 88.7-4.5 89.75-4.7 90.62-4.93 91.5-5.15 92.07-5.35 92.65-5.55 92.8-5.6L92.8-5.6 94.2-1.4 93.55-1.15Q92.9-0.9 91.72-0.58 90.55-0.25 88.92 0.03 87.3 0.3 85.35 0.3L85.35 0.3Q78.65 0.3 75.27-3.98 71.9-8.25 71.9-16.5L71.9-16.5Q71.9-20.45 72.8-23.73 73.7-27 75.52-29.35 77.35-31.7 80.12-33 82.9-34.3 86.65-34.3L86.65-34.3Q89.65-34.3 91.57-33.2 93.5-32.1 94.7-30.7L94.7-30.7ZM120.19-30.7L117.14-27.05Q115.94-28.35 114.62-29.03 113.29-29.7 111.54-29.7L111.54-29.7Q109.39-29.7 107.92-28.73 106.44-27.75 105.54-26.03 104.64-24.3 104.24-22 103.84-19.7 103.84-17.05L103.84-17.05Q103.84-14.4 104.22-12.1 104.59-9.8 105.52-8.05 106.44-6.3 108.02-5.3 109.59-4.3 111.99-4.3L111.99-4.3Q113.14-4.3 114.19-4.5 115.24-4.7 116.12-4.93 116.99-5.15 117.57-5.35 118.14-5.55 118.29-5.6L118.29-5.6 119.69-1.4 119.04-1.15Q118.39-0.9 117.22-0.58 116.04-0.25 114.42 0.03 112.79 0.3 110.84 0.3L110.84 0.3Q104.14 0.3 100.77-3.98 97.39-8.25 97.39-16.5L97.39-16.5Q97.39-20.45 98.29-23.73 99.19-27 101.02-29.35 102.84-31.7 105.62-33 108.39-34.3 112.14-34.3L112.14-34.3Q115.14-34.3 117.07-33.2 118.99-32.1 120.19-30.7L120.19-30.7ZM124.69 0L124.69-33.85 144.79-33.85 144.79-29.35 130.64-29.35 130.64-19.9 142.29-19.9 141.54-15.35 130.64-15.35 130.64-4.5 145.54-4.5 145.54 0 124.69 0ZM160.09-34.3L160.09-34.3Q161.84-34.3 163.44-33.98 165.04-33.65 166.36-33.23 167.69-32.8 168.61-32.35 169.54-31.9 169.89-31.65L169.89-31.65 167.44-27.35 166.79-27.7Q166.14-28.05 165.09-28.5 164.04-28.95 162.79-29.3 161.54-29.65 160.39-29.65L160.39-29.65Q158.59-29.65 157.26-28.8 155.94-27.95 155.94-26.15L155.94-26.15Q155.94-23.9 157.39-22.48 158.84-21.05 161.94-19.85L161.94-19.85Q163.94-19.05 165.51-18.18 167.09-17.3 168.19-16.15 169.29-15 169.86-13.5 170.44-12 170.44-9.9L170.44-9.9Q170.44-8 169.71-6.15 168.99-4.3 167.56-2.88 166.14-1.45 164.04-0.58 161.94 0.3 159.19 0.3L159.19 0.3Q157.24 0.3 155.49-0.1 153.74-0.5 152.31-1.03 150.89-1.55 149.86-2.1 148.84-2.65 148.34-2.95L148.34-2.95 150.44-7.55 151.34-7.05Q152.24-6.55 153.54-5.95 154.84-5.35 156.29-4.85 157.74-4.35 158.79-4.35L158.79-4.35Q161.44-4.35 162.74-5.65 164.04-6.95 164.04-9.3L164.04-9.3Q164.04-10.4 163.69-11.23 163.34-12.05 162.69-12.65 162.04-13.25 161.11-13.73 160.19-14.2 159.04-14.65L159.04-14.65Q156.79-15.6 155.01-16.55 153.24-17.5 151.99-18.73 150.74-19.95 150.09-21.53 149.44-23.1 149.44-25.3L149.44-25.3Q149.44-27.15 150.24-28.78 151.04-30.4 152.44-31.63 153.84-32.85 155.79-33.58 157.74-34.3 160.09-34.3ZM185.44-34.3L185.44-34.3Q187.19-34.3 188.79-33.98 190.39-33.65 191.71-33.23 193.04-32.8 193.96-32.35 194.89-31.9 195.24-31.65L195.24-31.65 192.79-27.35 192.14-27.7Q191.49-28.05 190.44-28.5 189.39-28.95 188.14-29.3 186.89-29.65 185.74-29.65L185.74-29.65Q183.94-29.65 182.61-28.8 181.29-27.95 181.29-26.15L181.29-26.15Q181.29-23.9 182.74-22.48 184.19-21.05 187.29-19.85L187.29-19.85Q189.29-19.05 190.86-18.18 192.44-17.3 193.54-16.15 194.64-15 195.21-13.5 195.79-12 195.79-9.9L195.79-9.9Q195.79-8 195.06-6.15 194.34-4.3 192.91-2.88 191.49-1.45 189.39-0.58 187.29 0.3 184.54 0.3L184.54 0.3Q182.59 0.3 180.84-0.1 179.09-0.5 177.66-1.03 176.24-1.55 175.21-2.1 174.19-2.65 173.69-2.95L173.69-2.95 175.79-7.55 176.69-7.05Q177.59-6.55 178.89-5.95 180.19-5.35 181.64-4.85 183.09-4.35 184.14-4.35L184.14-4.35Q186.79-4.35 188.09-5.65 189.39-6.95 189.39-9.3L189.39-9.3Q189.39-10.4 189.04-11.23 188.69-12.05 188.04-12.65 187.39-13.25 186.46-13.73 185.54-14.2 184.39-14.65L184.39-14.65Q182.14-15.6 180.36-16.55 178.59-17.5 177.34-18.73 176.09-19.95 175.44-21.53 174.79-23.1 174.79-25.3L174.79-25.3Q174.79-27.15 175.59-28.78 176.39-30.4 177.79-31.63 179.19-32.85 181.14-33.58 183.09-34.3 185.44-34.3Z" opacity="1" transform="matrix(1,0,0,1,0,0)" fill="#ff4057" class="wordmark-text-0" data-fill-palette-color="primary" id="text-0"></path></svg></g></svg></g><g transform="matrix(1,0,0,1,166.31616,87.73698221676348)"><svg viewBox="0 0 229.20383999999999 32.24566690909091" height="32.24566690909091" width="229.20383999999999"><g transform="matrix(1,0,0,1,0,0)"><svg width="229.20383999999999" viewBox="0.75 -36.05 335.47 47.199999999999996" height="32.24566690909091" data-palette-color="#fff"><path d="M0.75 0L7.25-33.65 11.85-33.25Q12.7-33.45 13.95-33.6 15.2-33.75 16.7-33.75L16.7-33.75Q18.9-33.75 20.75-33.38 22.6-33 23.93-32.15 25.25-31.3 25.98-29.9 26.7-28.5 26.7-26.45L26.7-26.45Q26.7-23.35 24.95-21.15 23.2-18.95 20.5-17.65L20.5-17.65Q22.75-16.7 23.83-15 24.9-13.3 24.9-10.95L24.9-10.95Q24.9-8.35 23.78-6.33 22.65-4.3 20.68-2.88 18.7-1.45 16.03-0.7 13.35 0.05 10.25 0.05L10.25 0.05Q8.95 0.05 7.5 0.05 6.05 0.05 4.8 0.03 3.55 0 2.7 0 1.85 0 1.8 0L1.8 0 0.75 0ZM13-15.2L9.45-15.2 7.3-3.95 9.8-3.95Q13.85-3.95 16.25-5.68 18.65-7.4 18.65-10.3L18.65-10.3Q18.65-11.4 18.4-12.3 18.15-13.2 17.5-13.85 16.85-14.5 15.75-14.85 14.65-15.2 13-15.2L13-15.2ZM15.2-29.75Q14.35-29.75 13.63-29.7 12.9-29.65 12.25-29.55L12.25-29.55 10.3-19.45 12.3-19.45Q14.6-19.45 16.15-19.9 17.7-20.35 18.68-21.15 19.65-21.95 20.08-23 20.5-24.05 20.5-25.25L20.5-25.25Q20.5-27.25 19.3-28.5 18.1-29.75 15.2-29.75L15.2-29.75ZM53.05-24.5Q53.05-24.6 52.82-23.6 52.6-22.6 52.22-20.95 51.85-19.3 51.42-17.3 51-15.3 50.65-13.35 50.3-11.4 50.05-9.78 49.8-8.15 49.8-7.3L49.8-7.3Q49.8-6.05 49.92-4.98 50.05-3.9 50.2-2.88 50.35-1.85 50.47-0.83 50.6 0.2 50.6 1.35L50.6 1.35Q50.6 4.1 49.85 5.98 49.1 7.85 47.72 8.97 46.35 10.1 44.37 10.6 42.4 11.1 40 11.1L40 11.1Q38.55 11.1 37.1 10.78 35.65 10.45 34.3 10 32.95 9.55 31.77 9.03 30.6 8.5 29.75 8.1L29.75 8.1 31.7 3.9Q32.65 4.3 33.75 4.78 34.85 5.25 36 5.65 37.15 6.05 38.35 6.33 39.55 6.6 40.7 6.6L40.7 6.6Q43.05 6.6 44.35 5.1 45.65 3.6 45.65 1.45L45.65 1.45Q45.65 1 45.62 0.48 45.6-0.05 45.55-0.73 45.5-1.4 45.47-2.3 45.45-3.2 45.45-4.5L45.45-4.5Q45.45-5.4 45.6-6.55 45.75-7.7 45.85-8.55L45.85-8.55 44.9-6.45Q43.45-3 41.02-1.3 38.6 0.4 35.6 0.4L35.6 0.4Q32.3 0.4 30.77-1.25 29.25-2.9 29.25-5.7L29.25-5.7Q29.25-7.65 29.75-9.5 30.25-11.35 30.87-13.13 31.5-14.9 32-16.65 32.5-18.4 32.5-20.15L32.5-20.15Q32.5-21.15 32.42-22.13 32.35-23.1 32.25-23.65L32.25-23.65 37-24.85Q37.55-23.75 37.75-22.38 37.95-21 37.95-19.8L37.95-19.8Q37.95-18.05 37.47-16.45 37-14.85 36.45-13.28 35.9-11.7 35.42-10.15 34.95-8.6 34.95-6.95L34.95-6.95Q34.95-5.75 35.52-4.93 36.1-4.1 37.65-4.1L37.65-4.1Q39-4.1 40.3-5.28 41.6-6.45 42.72-8.28 43.85-10.1 44.67-12.3 45.5-14.5 45.9-16.55L45.9-16.55 47.45-24.5 53.05-24.5ZM94.34 0L96.24-12.75Q96.34-13.5 96.54-14.58 96.74-15.65 96.99-16.93 97.24-18.2 97.52-19.6 97.79-21 98.04-22.3L98.04-22.3Q97.34-21 96.62-19.58 95.89-18.15 95.17-16.88 94.44-15.6 93.84-14.55 93.24-13.5 92.89-12.9L92.89-12.9 85.09 0 81.04 0 78.19-12.75Q78.04-13.4 77.84-14.48 77.64-15.55 77.39-16.82 77.14-18.1 76.89-19.53 76.64-20.95 76.39-22.25L76.39-22.25Q76.19-20.9 75.99-19.48 75.79-18.05 75.62-16.78 75.44-15.5 75.27-14.48 75.09-13.45 74.94-12.9L74.94-12.9 72.09 0.15 66.29-0.7 74.34-33.45 79.04-33.45 83.19-12.8Q83.44-11.5 83.69-10.05 83.94-8.6 84.14-7.15L84.14-7.15Q84.89-8.55 85.64-10 86.39-11.45 87.19-12.8L87.19-12.8 99.34-33.45 103.99-33.45 100.24 0 94.34 0ZM121.54-25.1Q123.94-25.1 125.54-24.4 127.14-23.7 128.12-22.53 129.09-21.35 129.49-19.85 129.89-18.35 129.89-16.75L129.89-16.75Q129.89-13.15 128.97-10 128.04-6.85 126.29-4.5 124.54-2.15 121.92-0.8 119.29 0.55 115.94 0.55L115.94 0.55Q113.59 0.55 111.99-0.15 110.39-0.85 109.42-2.02 108.44-3.2 108.02-4.7 107.59-6.2 107.59-7.8L107.59-7.8Q107.59-11.35 108.52-14.5 109.44-17.65 111.22-20 112.99-22.35 115.59-23.73 118.19-25.1 121.54-25.1L121.54-25.1ZM120.39-21.25Q118.74-21.25 117.47-19.88 116.19-18.5 115.32-16.43 114.44-14.35 113.99-11.95 113.54-9.55 113.54-7.45L113.54-7.45Q113.54-5.1 114.49-4.2 115.44-3.3 117.09-3.3L117.09-3.3Q118.74-3.3 120.02-4.67 121.29-6.05 122.17-8.13 123.04-10.2 123.49-12.63 123.94-15.05 123.94-17.1L123.94-17.1Q123.94-19.45 122.99-20.35 122.04-21.25 120.39-21.25L120.39-21.25ZM136.99-24.5L142.44-24.5 137.84-1.25Q137.29 1.45 136.29 3.35 135.29 5.25 133.89 6.63 132.49 8 130.71 9.05 128.94 10.1 126.84 11.15L126.84 11.15 124.89 7.35Q126.54 6.6 127.76 5.85 128.99 5.1 129.89 4.2 130.79 3.3 131.39 2.13 131.99 0.95 132.29-0.65L132.29-0.65 136.99-24.5ZM141.49-36.05Q143.09-36.05 143.84-35.18 144.59-34.3 144.59-32.8L144.59-32.8Q144.59-31.35 143.61-30.23 142.64-29.1 140.89-29.1L140.89-29.1Q139.29-29.1 138.56-30 137.84-30.9 137.84-32.25L137.84-32.25Q137.84-33.8 138.79-34.93 139.74-36.05 141.49-36.05L141.49-36.05ZM153.54-3.7Q154.79-3.7 156.04-5.1 157.29-6.5 158.34-8.53 159.39-10.55 160.16-12.88 160.94-15.2 161.34-17.1L161.34-17.1 162.04-20.55Q161.44-20.85 160.66-20.95 159.89-21.05 159.19-21.05L159.19-21.05Q156.94-21.05 155.36-19.78 153.79-18.5 152.81-16.53 151.84-14.55 151.41-12.18 150.99-9.8 150.99-7.65L150.99-7.65Q150.99-5.45 151.61-4.58 152.24-3.7 153.54-3.7L153.54-3.7ZM151.69 0.4Q149.89 0.4 148.64-0.3 147.39-1 146.59-2.18 145.79-3.35 145.41-4.83 145.04-6.3 145.04-7.85L145.04-7.85Q145.04-11.4 145.96-14.5 146.89-17.6 148.69-19.93 150.49-22.25 153.09-23.58 155.69-24.9 159.09-24.9L159.09-24.9Q159.94-24.9 161.49-24.73 163.04-24.55 165.04-23.7L165.04-23.7 168.19-23.5 165.94-11.85Q165.44-9.2 165.44-7.2L165.44-7.2Q165.44-4.75 166.06-3.43 166.69-2.1 167.24-1.3L167.24-1.3 162.74 0.5Q161.99-0.35 161.51-1.6 161.04-2.85 161.04-4.45L161.04-4.45Q161.04-5.1 161.14-6.13 161.24-7.15 161.39-8.45L161.39-8.45 160.54-6.45Q159.69-4.5 158.69-3.18 157.69-1.85 156.56-1.05 155.44-0.25 154.21 0.08 152.99 0.4 151.69 0.4L151.69 0.4ZM189.18-23.65L193.98-24.85Q194.53-23.75 194.73-22.38 194.93-21 194.93-19.8L194.93-19.8Q194.93-17.4 194.43-14.95 193.93-12.5 193.01-10.23 192.08-7.95 190.76-6 189.43-4.05 187.78-2.65L187.78-2.65Q185.88-1.05 183.81-0.33 181.73 0.4 178.63 0.4L178.63 0.4Q175.48 0.4 173.83-0.98 172.18-2.35 172.18-5.3L172.18-5.3Q172.18-5.65 172.23-6.23 172.28-6.8 172.36-7.4 172.43-8 172.51-8.55 172.58-9.1 172.63-9.45L172.63-9.45 175.53-24.5 180.98-24.5 178.13-9.6Q178.08-9.35 178.03-8.93 177.98-8.5 177.93-8.05 177.88-7.6 177.83-7.2 177.78-6.8 177.78-6.6L177.78-6.6Q177.78-5.2 178.48-4.35 179.18-3.5 180.53-3.5L180.53-3.5Q182.23-3.5 183.86-5.15 185.48-6.8 186.73-9.28 187.98-11.75 188.73-14.68 189.48-17.6 189.48-20.15L189.48-20.15Q189.48-20.8 189.41-21.95 189.33-23.1 189.18-23.65L189.18-23.65ZM197.68-7.8Q197.68-11.35 198.61-14.5 199.53-17.65 201.31-20 203.08-22.35 205.68-23.73 208.28-25.1 211.63-25.1L211.63-25.1Q215.53-25.1 217.18-23.65 218.83-22.2 218.83-19.7L218.83-19.7Q218.83-17.5 217.71-15.7 216.58-13.9 214.56-12.55 212.53-11.2 209.73-10.38 206.93-9.55 203.58-9.4L203.58-9.4Q203.53-8.95 203.53-8.5 203.53-8.05 203.53-7.65L203.53-7.65Q203.53-5.3 204.53-4.4 205.53-3.5 207.18-3.5L207.18-3.5Q208.18-3.5 209.46-3.8 210.73-4.1 211.93-4.5L211.93-4.5Q213.28-4.95 214.78-5.55L214.78-5.55 215.93-1.95Q214.43-1.25 212.78-0.7L212.78-0.7Q211.38-0.2 209.61 0.18 207.83 0.55 206.03 0.55L206.03 0.55Q203.68 0.55 202.08-0.15 200.48-0.85 199.51-2.02 198.53-3.2 198.11-4.7 197.68-6.2 197.68-7.8L197.68-7.8ZM210.48-21.25Q209.33-21.25 208.33-20.58 207.33-19.9 206.56-18.75 205.78-17.6 205.18-16.1 204.58-14.6 204.18-13L204.18-13Q206.43-13.15 208.11-13.73 209.78-14.3 210.91-15.15 212.03-16 212.61-16.95 213.18-17.9 213.18-18.8L213.18-18.8Q213.18-19.95 212.56-20.6 211.93-21.25 210.48-21.25L210.48-21.25ZM232.83-29.25L232.83-33.45 256.28-33.45 255.38-29.25 246.93-29.25 241.28 0 235.48 0 241.18-29.25 232.83-29.25ZM250.32-7.8Q250.32-11.35 251.25-14.5 252.17-17.65 253.95-20 255.72-22.35 258.32-23.73 260.92-25.1 264.27-25.1L264.27-25.1Q268.17-25.1 269.82-23.65 271.47-22.2 271.47-19.7L271.47-19.7Q271.47-17.5 270.35-15.7 269.22-13.9 267.2-12.55 265.17-11.2 262.37-10.38 259.57-9.55 256.22-9.4L256.22-9.4Q256.17-8.95 256.17-8.5 256.17-8.05 256.17-7.65L256.17-7.65Q256.17-5.3 257.17-4.4 258.17-3.5 259.82-3.5L259.82-3.5Q260.82-3.5 262.1-3.8 263.37-4.1 264.57-4.5L264.57-4.5Q265.92-4.95 267.42-5.55L267.42-5.55 268.57-1.95Q267.07-1.25 265.42-0.7L265.42-0.7Q264.02-0.2 262.25 0.18 260.47 0.55 258.67 0.55L258.67 0.55Q256.32 0.55 254.72-0.15 253.12-0.85 252.15-2.02 251.17-3.2 250.75-4.7 250.32-6.2 250.32-7.8L250.32-7.8ZM263.12-21.25Q261.97-21.25 260.97-20.58 259.97-19.9 259.2-18.75 258.42-17.6 257.82-16.1 257.22-14.6 256.82-13L256.82-13Q259.07-13.15 260.75-13.73 262.42-14.3 263.55-15.15 264.67-16 265.25-16.95 265.82-17.9 265.82-18.8L265.82-18.8Q265.82-19.95 265.2-20.6 264.57-21.25 263.12-21.25L263.12-21.25ZM281.72-3.7Q282.97-3.7 284.22-5.1 285.47-6.5 286.52-8.53 287.57-10.55 288.35-12.88 289.12-15.2 289.52-17.1L289.52-17.1 290.22-20.55Q289.62-20.85 288.85-20.95 288.07-21.05 287.37-21.05L287.37-21.05Q285.12-21.05 283.55-19.78 281.97-18.5 281-16.53 280.02-14.55 279.6-12.18 279.17-9.8 279.17-7.65L279.17-7.65Q279.17-5.45 279.8-4.58 280.42-3.7 281.72-3.7L281.72-3.7ZM279.87 0.4Q278.07 0.4 276.82-0.3 275.57-1 274.77-2.18 273.97-3.35 273.6-4.83 273.22-6.3 273.22-7.85L273.22-7.85Q273.22-11.4 274.15-14.5 275.07-17.6 276.87-19.93 278.67-22.25 281.27-23.58 283.87-24.9 287.27-24.9L287.27-24.9Q288.12-24.9 289.67-24.73 291.22-24.55 293.22-23.7L293.22-23.7 296.37-23.5 294.12-11.85Q293.62-9.2 293.62-7.2L293.62-7.2Q293.62-4.75 294.25-3.43 294.87-2.1 295.42-1.3L295.42-1.3 290.92 0.5Q290.17-0.35 289.7-1.6 289.22-2.85 289.22-4.45L289.22-4.45Q289.22-5.1 289.32-6.13 289.42-7.15 289.57-8.45L289.57-8.45 288.72-6.45Q287.87-4.5 286.87-3.18 285.87-1.85 284.75-1.05 283.62-0.25 282.4 0.08 281.17 0.4 279.87 0.4L279.87 0.4ZM336.22-18.8Q336.22-16.85 335.72-14.95 335.22-13.05 334.59-11.3 333.97-9.55 333.47-7.93 332.97-6.3 332.97-4.8L332.97-4.8Q332.97-3.8 333.07-2.48 333.17-1.15 333.42 0L333.42 0 327.82 0Q327.67-0.85 327.64-1.58 327.62-2.3 327.62-3L327.62-3Q327.62-4.95 328.07-6.85 328.52-8.75 329.07-10.6 329.62-12.45 330.07-14.2 330.52-15.95 330.52-17.55L330.52-17.55Q330.52-18.75 329.99-19.58 329.47-20.4 328.12-20.4L328.12-20.4Q327.02-20.4 325.87-19.38 324.72-18.35 323.72-16.73 322.72-15.1 321.92-13.1 321.12-11.1 320.77-9.1L320.77-9.1 319.02 0 313.42 0 315.92-12.6Q316.22-14.05 316.37-15.43 316.52-16.8 316.52-17.55L316.52-17.55Q316.52-18.75 315.99-19.58 315.47-20.4 314.12-20.4L314.12-20.4Q313.02-20.4 311.87-19.38 310.72-18.35 309.69-16.73 308.67-15.1 307.87-13.08 307.07-11.05 306.72-9.05L306.72-9.05 304.97 0 299.37 0 301.92-12.6Q302.22-14.05 302.34-15.3 302.47-16.55 302.47-17.55L302.47-17.55Q302.47-20.3 301.97-21.55 301.47-22.8 301.22-23.2L301.22-23.2 305.77-25Q306.32-24.3 306.69-23.3 307.07-22.3 307.07-20.75L307.07-20.75Q307.07-19.7 306.89-18.5 306.72-17.3 306.62-16.15L306.62-16.15 307.37-18.05Q308.72-21.5 310.94-23.2 313.17-24.9 315.87-24.9L315.87-24.9Q318.82-24.9 320.34-23.35 321.87-21.8 321.97-19.2L321.97-19.2Q324.77-24.9 329.92-24.9L329.92-24.9Q333.07-24.9 334.64-23.25 336.22-21.6 336.22-18.8L336.22-18.8Z" opacity="1" transform="matrix(1,0,0,1,0,0)" fill="#fff" class="slogan-text-1" data-fill-palette-color="secondary" id="text-1"></path></svg></g></svg></g></svg></g></svg></g><g><svg viewBox="0 0 155.81547351691955 155.9774438636107" height="155.9774438636107" width="155.81547351691955"><g><svg xmlns="http://www.w3.org/2000/svg" xmlns:xlink="http://www.w3.org/1999/xlink" version="1.1" x="0" y="0" viewBox="1.999999999999996 1.999999999999996 96.20000000000002 96.3" style="enable-background:new 0 0 100 100;" xml:space="preserve" height="155.9774438636107" width="155.81547351691955" class="icon-icon-0" data-fill-palette-color="accent" id="icon-0"><path d="M97.4 81.7L68.1 52.3c6.5-13 4.3-29.3-6.6-40.1-13.6-13.6-35.7-13.6-49.3 0-13.6 13.6-13.6 35.7 0 49.3 10.8 10.8 27.1 13 40.1 6.6l5.3 5.3c0.4 0.4 1 0.7 1.6 0.7l7.3 0c0.5 0 0.9 0.4 0.9 0.9l0 6.5c0 0.8 0.3 1.5 0.9 2.1 0.6 0.6 1.3 0.9 2.1 0.9l6.5 0c0.5 0 0.9 0.4 0.9 0.9l0 7.3c0 0.6 0.2 1.2 0.7 1.6l3.4 3.4c0.4 0.4 0.8 0.6 1.3 0.6l13.7 0c0.7 0 1.3-0.6 1.3-1.3L98 83C98 82.5 97.8 82.1 97.4 81.7zM21 44.5c1.2 1.5 2.5 2.9 3.9 4.3 1.4 1.4 2.8 2.7 4.3 3.9l-5.6 5.6c-1.6-1-3.2-2.2-4.6-3.6-1.4-1.4-2.6-3-3.6-4.6L21 44.5zM12.8 44.5c-1.6-5-1.6-10.3 0-15.3 0.8 3.4 2.4 7 4.7 10.6L12.8 44.5zM51.5 55.6c-3.2 0.6-8-0.6-13.3-3.7l4.8-4.8L51.5 55.6zM34.8 30.7l5.5-5.5c1.4 1.1 2.9 2.4 4.3 3.9 1.4 1.4 2.7 2.9 3.8 4.3L43 38.9 34.8 30.7zM47.1 43l4.8-4.8c3.1 5.2 4.3 10.1 3.7 13.3L47.1 43zM52.6 29.2c-1.2-1.5-2.5-2.9-3.9-4.3-1.4-1.4-2.8-2.7-4.3-3.9l5.6-5.6c1.6 1 3.2 2.2 4.6 3.6 1.4 1.4 2.6 3 3.6 4.6L52.6 29.2zM39.7 17.6c-3.6-2.3-7.2-3.9-10.6-4.7 5-1.6 10.3-1.6 15.3 0L39.7 17.6zM35.5 21.8l-4.8 4.8-8.5-8.5C25.4 17.5 30.2 18.7 35.5 21.8zM26.6 30.7l-4.8 4.8c-3.1-5.2-4.3-10.1-3.7-13.3L26.6 30.7zM29 44.7c-1.4-1.4-2.7-2.9-3.8-4.3l5.5-5.5 8.2 8.2-5.5 5.5C31.9 47.4 30.4 46.1 29 44.7zM34 56.1c3.6 2.3 7.2 3.9 10.6 4.7-5 1.6-10.3 1.6-15.3 0L34 56.1zM60.8 29.2c1.6 5 1.6 10.3 0 15.3-0.8-3.4-2.4-7-4.7-10.6L60.8 29.2z" fill="#fff" data-fill-palette-color="accent"></path></svg></g></svg></g></svg></g><defs></defs></svg><rect width="395.52" height="104.3419828016142" fill="none" stroke="none" visibility="hidden"></rect></g></svg></g></svg>