<svg xmlns="http://www.w3.org/2000/svg" version="1.1" xmlns:xlink="http://www.w3.org/1999/xlink" xmlns:svgjs="http://svgjs.dev/svgjs" width="128" height="128" viewBox="0 0 128 128"><g transform="matrix(0.8046875,0,0,0.8046875,12.707003148057062,12.760752631578946)"><svg viewBox="0 0 95 95" data-background-color="#282634" preserveAspectRatio="xMidYMid meet" height="128" width="128" xmlns="http://www.w3.org/2000/svg" xmlns:xlink="http://www.w3.org/1999/xlink"><g id="tight-bounds" transform="matrix(1,0,0,1,-0.1909252336448617,-0.24049999999999727)"><svg viewBox="0 0 95.38185046728974 95.481" height="95.481" width="95.38185046728974"><g><svg viewBox="0 0 95.38185046728974 95.481" height="95.481" width="95.38185046728974"><g><svg viewBox="0 0 95.38185046728974 95.481" height="95.481" width="95.38185046728974"><g id="textblocktransform"><svg viewBox="0 0 95.38185046728974 95.481" height="95.481" width="95.38185046728974" id="textblock"><g><svg viewBox="0 0 95.38185046728974 95.481" height="95.481" width="95.38185046728974"><g><svg viewBox="0 0 95.38185046728974 95.481" height="95.481" width="95.38185046728974"><g><svg xmlns="http://www.w3.org/2000/svg" xmlns:xlink="http://www.w3.org/1999/xlink" version="1.1" x="0" y="0" viewBox="1.999999999999996 1.999999999999996 96.20000000000002 96.3" style="enable-background:new 0 0 100 100;" xml:space="preserve" height="95.481" width="95.38185046728974" class="icon-icon-0" data-fill-palette-color="accent" id="icon-0"><path d="M97.4 81.7L68.1 52.3c6.5-13 4.3-29.3-6.6-40.1-13.6-13.6-35.7-13.6-49.3 0-13.6 13.6-13.6 35.7 0 49.3 10.8 10.8 27.1 13 40.1 6.6l5.3 5.3c0.4 0.4 1 0.7 1.6 0.7l7.3 0c0.5 0 0.9 0.4 0.9 0.9l0 6.5c0 0.8 0.3 1.5 0.9 2.1 0.6 0.6 1.3 0.9 2.1 0.9l6.5 0c0.5 0 0.9 0.4 0.9 0.9l0 7.3c0 0.6 0.2 1.2 0.7 1.6l3.4 3.4c0.4 0.4 0.8 0.6 1.3 0.6l13.7 0c0.7 0 1.3-0.6 1.3-1.3L98 83C98 82.5 97.8 82.1 97.4 81.7zM21 44.5c1.2 1.5 2.5 2.9 3.9 4.3 1.4 1.4 2.8 2.7 4.3 3.9l-5.6 5.6c-1.6-1-3.2-2.2-4.6-3.6-1.4-1.4-2.6-3-3.6-4.6L21 44.5zM12.8 44.5c-1.6-5-1.6-10.3 0-15.3 0.8 3.4 2.4 7 4.7 10.6L12.8 44.5zM51.5 55.6c-3.2 0.6-8-0.6-13.3-3.7l4.8-4.8L51.5 55.6zM34.8 30.7l5.5-5.5c1.4 1.1 2.9 2.4 4.3 3.9 1.4 1.4 2.7 2.9 3.8 4.3L43 38.9 34.8 30.7zM47.1 43l4.8-4.8c3.1 5.2 4.3 10.1 3.7 13.3L47.1 43zM52.6 29.2c-1.2-1.5-2.5-2.9-3.9-4.3-1.4-1.4-2.8-2.7-4.3-3.9l5.6-5.6c1.6 1 3.2 2.2 4.6 3.6 1.4 1.4 2.6 3 3.6 4.6L52.6 29.2zM39.7 17.6c-3.6-2.3-7.2-3.9-10.6-4.7 5-1.6 10.3-1.6 15.3 0L39.7 17.6zM35.5 21.8l-4.8 4.8-8.5-8.5C25.4 17.5 30.2 18.7 35.5 21.8zM26.6 30.7l-4.8 4.8c-3.1-5.2-4.3-10.1-3.7-13.3L26.6 30.7zM29 44.7c-1.4-1.4-2.7-2.9-3.8-4.3l5.5-5.5 8.2 8.2-5.5 5.5C31.9 47.4 30.4 46.1 29 44.7zM34 56.1c3.6 2.3 7.2 3.9 10.6 4.7-5 1.6-10.3 1.6-15.3 0L34 56.1zM60.8 29.2c1.6 5 1.6 10.3 0 15.3-0.8-3.4-2.4-7-4.7-10.6L60.8 29.2z" fill="#fff" data-fill-palette-color="accent"></path></svg></g></svg></g></svg></g></svg></g></svg></g></svg></g><defs></defs></svg><rect width="95.38185046728974" height="95.481" fill="none" stroke="none" visibility="hidden"></rect></g></svg></g></svg>