<?xml version="1.0" encoding="utf-8"?>
<!-- Generator: Adobe Illustrator 18.1.1, SVG Export Plug-In . SVG Version: 6.00 Build 0)  -->
<svg version="1.1" id="Layer_1" xmlns="http://www.w3.org/2000/svg" xmlns:xlink="http://www.w3.org/1999/xlink" x="0px" y="0px"
	 viewBox="0 0 40 21.6" enable-background="new 0 0 40 21.6" xml:space="preserve">
<path fill="none" stroke="#1575BA" stroke-width="0.3" stroke-miterlimit="10" d="M4.6,17.7h28.5c0.4,0,0.7,0.3,0.7,0.7v2.2l0,0H4
	l0,0v-2.2C4,18,4.3,17.7,4.6,17.7z"/>
<path fill="none" stroke="#1575BA" stroke-width="0.3" stroke-miterlimit="10" d="M32.7,17.7V2.4c0-0.4-0.3-0.7-0.6-0.7H5.7
	C5.3,1.7,5,2,5,2.4v15.2"/>
<path fill="none" stroke="#1575BA" stroke-width="0.3" stroke-miterlimit="10" d="M32.4,17.2"/>
<path fill="none" stroke="#1575BA" stroke-width="0.3" stroke-miterlimit="10" d="M4.8,17.6"/>
<path fill="none" stroke="#1575BA" stroke-width="0.3" stroke-miterlimit="10" d="M24.3,18.8H13.5c-0.1,0-0.3-0.1-0.3-0.3v-0.8l0,0
	h11.3l0,0v0.8C24.6,18.7,24.4,18.8,24.3,18.8z"/>
<circle fill="#FFFFFF" stroke="#050505" stroke-width="0.3" stroke-miterlimit="10" cx="5" cy="10.6" r="4.7"/>
<path fill="none" stroke="#1575BA" stroke-width="0.3" stroke-miterlimit="10" d="M4.6,11.6l-1.7,1.7c-0.1,0.1-0.2,0.1-0.3,0
	c0,0,0,0,0,0l-0.2-0.2c-0.1-0.1-0.1-0.2,0-0.3c0,0,0,0,0,0L4.1,11 M3.7,9.9c0,1.1,0.9,2.1,2.1,2.1S7.8,11,7.8,9.9S6.9,7.8,5.8,7.8
	C4.6,7.8,3.7,8.7,3.7,9.9L3.7,9.9L3.7,9.9z M5.9,11.3c0.4,0,0.8-0.2,1-0.5C7,10.7,7,10.7,7.1,10.6c0,0,0-0.1,0.1-0.1
	c0.1-0.2,0.1-0.3,0.1-0.5"/>
<circle fill="#FFFFFF" stroke="#050505" stroke-width="0.2" stroke-miterlimit="10" cx="32.4" cy="9.7" r="7.1"/>
<polygon fill="none" stroke="#1575BA" stroke-width="0.2" stroke-linejoin="round" stroke-miterlimit="10" points="32.4,4.5 
	27.7,12.7 37.1,12.7 32.4,4.5 27.7,12.7 37.1,12.7 "/>
<g>
	<path fill="#1575BA" d="M32.1,10.9c0-0.1,0.1-0.3,0.2-0.3c0.1,0,0.2,0.1,0.2,0.3c0,0.1-0.1,0.3-0.2,0.3
		C32.2,11.2,32.1,11,32.1,10.9z M32.2,10.3l-0.1-2h0.4l-0.1,2H32.2z"/>
</g>
</svg>
