<?xml version="1.0" encoding="utf-8"?>
<!-- Generator: Adobe Illustrator 18.1.1, SVG Export Plug-In . SVG Version: 6.00 Build 0)  -->
<svg version="1.1" id="Layer_1" xmlns="http://www.w3.org/2000/svg" xmlns:xlink="http://www.w3.org/1999/xlink" x="0px" y="0px"
	 viewBox="0 0 40 25.9" enable-background="new 0 0 40 25.9" xml:space="preserve">
<path fill="none" stroke="#1575BA" stroke-width="0.3" stroke-miterlimit="10" d="M3.3,21.2h31.9c0.4,0,0.8,0.3,0.8,0.8v2.5l0,0H2.5
	l0,0V22C2.5,21.6,2.9,21.2,3.3,21.2z"/>
<path fill="none" stroke="#1575BA" stroke-width="0.3" stroke-miterlimit="10" d="M34.7,21.2V4.1c0-0.4-0.3-0.8-0.7-0.8H4.4
	c-0.4,0-0.7,0.3-0.7,0.8v17.1"/>
<path fill="none" stroke="#1575BA" stroke-width="0.3" stroke-miterlimit="10" d="M34.4,20.7"/>
<path fill="none" stroke="#1575BA" stroke-width="0.3" stroke-miterlimit="10" d="M3.5,21.1"/>
<path fill="none" stroke="#1575BA" stroke-width="0.3" stroke-miterlimit="10" d="M25.3,22.5H13.3c-0.2,0-0.3-0.1-0.3-0.3v-0.9l0,0
	h12.6l0,0v0.9C25.6,22.3,25.5,22.5,25.3,22.5z"/>
<circle fill="#FFFFFF" stroke="#050505" stroke-width="0.3" stroke-miterlimit="10" cx="34.4" cy="12.3" r="5.2"/>
<circle fill="#FFFFFF" stroke="#050505" stroke-width="0.3" stroke-miterlimit="10" cx="4.2" cy="10.5" r="3.6"/>
<circle fill="#FFFFFF" stroke="#050505" stroke-width="0.3" stroke-miterlimit="10" cx="18.6" cy="5" r="3.6"/>
<circle fill="#FFFFFF" stroke="#050505" stroke-width="0.3" stroke-miterlimit="10" cx="13.8" cy="13.1" r="3.6"/>
<circle fill="#FFFFFF" stroke="#050505" stroke-width="0.3" stroke-miterlimit="10" cx="23.1" cy="16.3" r="3.6"/>
<path fill="none" stroke="#1575BA" stroke-width="0.3" stroke-miterlimit="10" d="M33.9,13.4l-2,2c-0.1,0.1-0.2,0.1-0.3,0
	c0,0,0,0,0,0l-0.3-0.3c-0.1-0.1-0.1-0.2,0-0.3c0,0,0,0,0,0l2-2 M32.9,11.5c0,1.3,1,2.3,2.3,2.3s2.3-1,2.3-2.3s-1-2.3-2.3-2.3
	C33.9,9.1,32.9,10.2,32.9,11.5C32.9,11.5,32.9,11.5,32.9,11.5L32.9,11.5z M35.4,13.1c0.4,0,0.9-0.2,1.1-0.5c0.1-0.1,0.1-0.2,0.2-0.3
	c0-0.1,0.1-0.1,0.1-0.2c0.1-0.2,0.1-0.3,0.1-0.5"/>
<g>
	<path fill="#1575BA" d="M3.8,11.3c0-0.2,0-0.5,0-0.7c0-0.1,0-0.1-0.1-0.1c0,0-0.1,0-0.1,0c-0.1,0-0.1,0-0.1-0.1c0-0.2,0-0.3,0-0.5
		c0-0.1,0-0.1,0.1-0.1c0.1,0,0.1,0,0.2,0c0,0,0,0,0,0c0-0.1,0-0.2,0-0.3c0-0.4,0.3-0.6,0.6-0.7c0.2,0,0.3,0,0.5,0C5,8.9,5,8.9,5,9
		c0,0.1,0,0.3,0,0.4c0,0.1,0,0.1-0.1,0.1c-0.1,0-0.2,0-0.3,0c-0.1,0-0.1,0-0.1,0.1c0,0.1,0,0.1,0,0.2c0,0,0,0,0,0c0.1,0,0.2,0,0.3,0
		C5,9.8,5,9.9,5,10c0,0.1,0,0.3,0,0.4c0,0.1,0,0.1-0.1,0.1c-0.1,0-0.2,0-0.3,0c-0.1,0-0.1,0-0.1,0.1c0,0.4,0,0.9,0,1.3
		c0,0.1,0,0.2-0.2,0.2c-0.2,0-0.3,0-0.5,0c-0.1,0-0.1,0-0.1-0.1C3.8,11.7,3.8,11.5,3.8,11.3z M4.4,11.2c0-0.2,0-0.5,0-0.7
		c0,0,0-0.1,0.1-0.1c0.1,0,0.2,0,0.3,0c0,0,0,0,0,0c0-0.1,0-0.2,0-0.3c0,0,0,0,0,0c-0.1,0-0.3,0-0.4,0c0,0,0,0,0,0
		c0-0.1,0-0.2,0-0.4c0-0.1,0.1-0.2,0.2-0.2c0.1,0,0.2,0,0.2,0c0,0,0,0,0,0c0-0.1,0-0.2,0-0.3c0,0,0,0-0.1,0C4.7,9,4.6,9,4.4,9
		C4.1,9,3.9,9.2,3.9,9.5c0,0.1,0,0.3,0,0.4c0,0,0,0.1-0.1,0.1c-0.1,0-0.2,0-0.2,0c0,0,0,0,0,0c0,0.1,0,0.2,0,0.3c0,0,0,0,0,0
		c0.1,0,0.1,0,0.2,0c0.1,0,0.1,0,0.1,0.1c0,0.5,0,1,0,1.4c0,0,0,0.1,0.1,0.1c0.1,0,0.2,0,0.4,0c0,0,0.1,0,0.1-0.1
		C4.4,11.6,4.4,11.4,4.4,11.2z"/>
</g>
<g>
	<path fill="#FFFFFF" d="M20.2,3.9C20.2,3.9,20.2,3.9,20.2,3.9c0-0.1,0-0.1,0.1-0.1c0-0.1,0.1-0.1,0.1-0.2c0,0,0,0,0-0.1
		c0,0,0,0,0,0c-0.1,0.1-0.2,0.1-0.4,0.1c0,0-0.1,0-0.1,0c-0.3-0.2-0.5-0.2-0.8-0.1c-0.3,0.1-0.4,0.4-0.4,0.7c0,0.1,0,0.1-0.1,0.1
		c-0.3,0-0.5-0.2-0.8-0.3c-0.2-0.1-0.3-0.2-0.5-0.4c-0.1-0.1-0.1-0.1-0.1,0C17,4,17,4.2,17.1,4.5c0,0,0,0,0,0.1
		c-0.1,0-0.1,0-0.1,0.1c0,0.2,0.1,0.5,0.3,0.6c-0.1,0-0.1,0.1,0,0.1c0.1,0.2,0.2,0.4,0.5,0.5c0,0,0,0,0,0C17.7,5.9,17.6,6,17.5,6
		c-0.2,0-0.4,0.1-0.5,0c0,0-0.1,0-0.1,0c0,0,0,0.1,0,0.1c0,0,0,0,0,0c0.5,0.3,1,0.4,1.5,0.3c0.5-0.1,0.9-0.3,1.2-0.8
		c0.3-0.4,0.4-0.8,0.4-1.3c0,0,0-0.1,0-0.1c0.1-0.1,0.2-0.2,0.2-0.3c0,0,0.1-0.1,0.1-0.2c0-0.1,0-0.1-0.1-0.1
		C20.3,3.9,20.3,3.9,20.2,3.9z"/>
	<path fill="#1575BA" d="M20.2,3.9c0.1,0,0.1-0.1,0.2-0.1c0.1,0,0.1,0,0.1,0.1c0,0.1,0,0.1-0.1,0.2c-0.1,0.1-0.1,0.2-0.2,0.3
		c0,0,0,0.1,0,0.1c0,0.5-0.1,0.9-0.4,1.3c-0.3,0.4-0.7,0.6-1.2,0.8c-0.5,0.1-1.1,0-1.5-0.3c0,0,0,0,0,0c0,0-0.1-0.1,0-0.1
		c0,0,0.1,0,0.1,0c0.2,0,0.4,0,0.5,0c0.1,0,0.2-0.1,0.3-0.1c0,0,0,0,0,0c-0.2-0.1-0.4-0.2-0.5-0.5c0-0.1,0-0.1,0-0.1
		C17.1,5.1,17,4.9,17,4.6c0-0.1,0-0.1,0.1-0.1c0,0,0,0,0-0.1C17,4.2,17,4,17.1,3.7c0-0.1,0.1-0.1,0.1,0c0.1,0.1,0.3,0.3,0.5,0.4
		c0.2,0.2,0.5,0.3,0.8,0.3c0.1,0,0.1,0,0.1-0.1c0-0.3,0.1-0.6,0.4-0.7c0.3-0.1,0.6-0.1,0.8,0.1c0,0,0,0,0.1,0c0.1,0,0.3-0.1,0.4-0.1
		c0,0,0,0,0,0c0,0,0,0,0,0.1c0,0.1,0,0.1-0.1,0.2C20.3,3.9,20.2,3.9,20.2,3.9C20.2,3.9,20.2,3.9,20.2,3.9C20.2,4,20.2,4,20.2,3.9z
		 M20.1,3.8c-0.1,0-0.2,0-0.2,0.1c-0.1,0-0.1,0-0.2,0c-0.1-0.1-0.3-0.2-0.5-0.1c-0.4,0.1-0.6,0.4-0.5,0.8c0,0.1,0,0.1-0.1,0.1
		c-0.1,0-0.2,0-0.3,0c-0.3-0.1-0.6-0.2-0.9-0.4C17.4,4,17.3,4,17.2,3.9c-0.1,0.1-0.1,0.3,0,0.5c0,0.1,0.1,0.2,0.2,0.3
		c0,0,0.1,0.1,0,0.1c0,0-0.1,0-0.1,0c0,0,0,0-0.1,0c0,0,0,0-0.1,0c0,0.2,0.1,0.4,0.3,0.4c0,0,0.1,0,0.1,0.1c0,0,0.1,0,0.1,0.1
		c0,0,0,0.1-0.1,0.1c-0.1,0-0.1,0-0.2,0c0.1,0.1,0.1,0.2,0.3,0.3c0.1,0,0.2,0,0.2,0.1c0.1,0,0.1,0.1,0,0.2c-0.2,0.2-0.4,0.3-0.6,0.3
		c0,0-0.1,0-0.1,0c0,0,0,0,0.1,0c0.4,0.1,0.8,0.2,1.2,0.1c0.4-0.1,0.7-0.3,1-0.6C19.8,5.4,20,4.9,20,4.4c0-0.1,0-0.2,0.1-0.2
		c0,0,0.1-0.1,0.1-0.1c-0.1,0-0.1,0-0.2,0c0,0-0.1,0-0.1,0c0,0,0-0.1,0-0.1C20.1,3.9,20.1,3.9,20.1,3.8z"/>
	<path fill="#FFFFFF" d="M20.2,3.9C20.2,4,20.2,4,20.2,3.9C20.2,3.9,20.2,3.9,20.2,3.9C20.2,3.9,20.2,3.9,20.2,3.9z"/>
</g>
<path fill="#1575BA" d="M14.2,12.2c0.3-0.2,0.6-0.3,0.9-0.2c0.3,0.1,0.5,0.3,0.6,0.6c0,0.1,0,0.2,0,0.3c0,0.5,0,0.9,0,1.4
	c0,0.1,0,0.1-0.1,0.1c-0.2,0-0.5,0-0.7,0c-0.1,0-0.1,0-0.1-0.1c0-0.4,0-0.7,0-1.1c0-0.1,0-0.2,0-0.2c0-0.1-0.1-0.2-0.2-0.2
	c-0.2,0-0.3,0-0.3,0.2c0,0.1,0,0.2,0,0.2c0,0.4,0,0.8,0,1.1c0,0.1,0,0.1-0.1,0.1c-0.2,0-0.5,0-0.7,0c-0.1,0-0.1,0-0.1-0.1
	c0-0.7,0-1.5,0-2.2c0,0,0-0.1,0.1-0.1c0.2,0,0.5,0,0.7,0C14.2,12.1,14.2,12.1,14.2,12.2C14.2,12.2,14.2,12.2,14.2,12.2z M14,12.8
	C14,12.8,14,12.8,14,12.8c0-0.2,0-0.3,0-0.5c0-0.1,0-0.1-0.1-0.1c-0.1,0-0.2,0-0.4,0c0,0-0.1,0-0.1,0.1c0,0.6,0,1.3,0,1.9
	c0,0,0,0.1,0.1,0.1c0.1,0,0.2,0,0.4,0c0.1,0,0.1,0,0.1-0.1c0-0.3,0-0.7,0-1C14,13.1,14.1,13,14,12.8c0.2-0.1,0.3-0.1,0.5-0.1
	c0.2,0,0.3,0.1,0.4,0.3c0,0.1,0,0.2,0,0.3c0,0.3,0,0.7,0,1c0,0,0,0.1,0.1,0.1c0.1,0,0.3,0,0.4,0c0,0,0.1,0,0,0c0-0.4,0-0.9,0-1.3
	c0-0.4-0.3-0.7-0.7-0.7c-0.3,0-0.5,0.1-0.6,0.4C14.1,12.6,14.1,12.7,14,12.8z"/>
<path fill="#1575BA" d="M13.1,13.3c0,0.4,0,0.7,0,1.1c0,0.1,0,0.1-0.1,0.1c-0.2,0-0.5,0-0.7,0c0,0-0.1,0-0.1-0.1c0-0.7,0-1.5,0-2.2
	c0,0,0-0.1,0.1-0.1c0.2,0,0.5,0,0.7,0c0,0,0.1,0,0.1,0.1C13.1,12.5,13.1,12.9,13.1,13.3z M13,13.2c0-0.3,0-0.6,0-0.9
	c0,0,0-0.1-0.1-0.1c-0.1,0-0.3,0-0.4,0c0,0-0.1,0-0.1,0.1c0,0.6,0,1.3,0,1.9c0,0,0,0.1,0.1,0.1c0.1,0,0.3,0,0.4,0
	c0.1,0,0.1,0,0.1-0.1C13,13.9,13,13.6,13,13.2z"/>
<path fill="#1575BA" d="M12.7,12c-0.3,0-0.5-0.2-0.5-0.5c0-0.3,0.2-0.5,0.5-0.5c0.3,0,0.5,0.2,0.5,0.5C13.2,11.7,13,12,12.7,12z
	 M12.7,11.8c0.2,0,0.3-0.1,0.3-0.3c0-0.2-0.1-0.3-0.3-0.3c-0.2,0-0.3,0.1-0.3,0.3C12.4,11.6,12.5,11.8,12.7,11.8z"/>
<path fill="#1575BA" d="M24.9,16.3c0,0.3,0,0.6,0,0.9c-0.1,0.5-0.4,0.9-0.9,0.9c-0.5,0-0.9,0-1.4,0c-0.2,0-0.3,0-0.5-0.1
	c-0.4-0.1-0.7-0.4-0.7-0.9c0-0.5,0-0.9,0-1.4c0-0.2,0-0.3,0.1-0.5c0.1-0.4,0.4-0.7,0.9-0.7c0.5,0,0.9,0,1.4,0c0.2,0,0.3,0,0.5,0.1
	c0.4,0.1,0.7,0.4,0.7,0.8C24.9,15.7,24.9,16,24.9,16.3z M24.7,16.3c0-0.3,0-0.6,0-0.9c-0.1-0.4-0.3-0.7-0.7-0.7c-0.2,0-0.4,0-0.7,0
	c-0.4,0-0.7,0-1.1,0c-0.3,0-0.6,0.2-0.7,0.5c0,0.1-0.1,0.2-0.1,0.3c0,0.2,0,0.5,0,0.7c0,0.3,0,0.6,0,0.9c0.1,0.4,0.3,0.7,0.7,0.7
	c0.2,0,0.4,0,0.7,0c0.4,0,0.7,0,1.1,0c0.4,0,0.7-0.3,0.7-0.7C24.8,16.9,24.7,16.6,24.7,16.3z"/>
<path fill="#1575BA" d="M24.6,16.3c0,0.3,0,0.6,0,0.8c0,0.3-0.3,0.6-0.6,0.6c-0.4,0-0.7,0-1.1,0c-0.2,0-0.4,0-0.6,0
	c-0.3-0.1-0.5-0.3-0.6-0.6c0-0.3,0-0.6,0-0.9c0-0.3,0-0.6,0-0.8c0-0.3,0.3-0.6,0.6-0.6c0.4,0,0.7,0,1.1,0c0.2,0,0.4,0,0.6,0
	c0.3,0.1,0.5,0.3,0.6,0.6C24.6,15.8,24.6,16,24.6,16.3z M23.1,17.7c0.3,0,0.5,0,0.8,0c0.3,0,0.5-0.2,0.6-0.6c0-0.5,0-1,0-1.5
	c0-0.3-0.2-0.5-0.6-0.6c-0.5,0-1,0-1.5,0c-0.3,0-0.5,0.2-0.6,0.5c0,0.5,0,1,0,1.5c0,0.3,0.2,0.5,0.5,0.5
	C22.6,17.7,22.8,17.6,23.1,17.7z"/>
<path fill="#1575BA" d="M24.1,16.3c0,0.5-0.4,1-1,1c-0.5,0-1-0.4-1-1c0-0.5,0.4-1,1-1C23.6,15.4,24.1,15.8,24.1,16.3z M22.3,16.3
	c0,0.4,0.4,0.8,0.8,0.8c0.4,0,0.8-0.4,0.8-0.8c0-0.4-0.3-0.8-0.8-0.8C22.7,15.5,22.3,15.9,22.3,16.3z"/>
<path fill="#1575BA" d="M24,15.7c-0.2,0-0.3-0.1-0.3-0.3c0-0.2,0.1-0.3,0.3-0.3c0.2,0,0.3,0.1,0.3,0.3C24.3,15.6,24.2,15.7,24,15.7z
	 M24.1,15.4c0-0.1-0.1-0.1-0.1-0.1c-0.1,0-0.1,0.1-0.1,0.1c0,0.1,0.1,0.1,0.1,0.1C24.1,15.5,24.1,15.5,24.1,15.4z"/>
<path fill="#F9F9FA" d="M23.1,15.7c-0.4,0-0.7,0.3-0.7,0.7c0,0.4,0.3,0.6,0.6,0.7c0.4,0,0.7-0.3,0.7-0.6
	C23.8,16,23.5,15.7,23.1,15.7z"/>
<path fill="#1575BA" d="M23.1,15.7c0.4,0,0.7,0.3,0.7,0.7c0,0.4-0.3,0.7-0.7,0.6c-0.4,0-0.6-0.3-0.6-0.7
	C22.5,16,22.7,15.7,23.1,15.7z M23.6,16.3c0-0.3-0.2-0.5-0.5-0.5c-0.3,0-0.5,0.2-0.5,0.5c0,0.3,0.2,0.5,0.5,0.5
	C23.4,16.8,23.6,16.6,23.6,16.3z"/>
</svg>
