<?xml version="1.0" encoding="utf-8"?>
<!-- Generator: Adobe Illustrator 18.1.1, SVG Export Plug-In . SVG Version: 6.00 Build 0)  -->
<svg version="1.1" id="Layer_1" xmlns="http://www.w3.org/2000/svg" xmlns:xlink="http://www.w3.org/1999/xlink" x="0px" y="0px"
	 viewBox="0 0 40 40" enable-background="new 0 0 40 40" xml:space="preserve">
<g id="Layer_2_2_">
	<g id="Ebene_6_2_">
		<circle fill="none" stroke="#1575BA" stroke-width="0.3" stroke-miterlimit="10" cx="26" cy="22.9" r="13.1"/>
		<line fill="none" stroke="#1575BA" stroke-width="0.3" stroke-miterlimit="10" x1="19.1" y1="11.8" x2="16.7" y2="7.8"/>
		<line fill="none" stroke="#1575BA" stroke-width="0.3" stroke-miterlimit="10" x1="13.2" y1="20" x2="7.9" y2="18.5"/>
		<line fill="none" stroke="#1575BA" stroke-width="0.3" stroke-miterlimit="10" x1="15.1" y1="30.3" x2="10.3" y2="32.7"/>
		<circle fill="none" stroke="#161616" stroke-width="0.3" stroke-miterlimit="10" cx="15.5" cy="5.5" r="2.6"/>
		<circle fill="none" stroke="#1575BA" stroke-width="0.3" stroke-miterlimit="10" cx="8.2" cy="33.7" r="2.3"/>
		
			<circle fill="none" stroke="#1575BA" stroke-width="0.3" stroke-miterlimit="10" stroke-dasharray="5" cx="4.4" cy="17.1" r="3.8"/>
	</g>
</g>
<g>
	<path fill="none" stroke="#161616" stroke-width="0.3" stroke-miterlimit="10" d="M28.9,20.4l0.3-0.2c0.3-0.2,1.5-1.4,0.5-2.4
		c0-0.8,0-1.6-0.1-2.2c-0.2-0.7-0.5-1.4-1.1-1.8c-0.6-0.5-1.7-0.7-2.7-0.6c-1,0-1.9,0.3-2.5,0.9c-0.5,0.5-0.7,1.1-0.9,1.8
		c-0.1,0.6-0.1,1.3-0.1,2.1c-1,1.1,0.2,2.2,0.5,2.4c0.1,0,0.2,0.1,0.3,0.1c0.5,1.6,1.6,2.7,2.9,2.7C27.2,23,28.3,21.9,28.9,20.4z"/>
	<g>
		<path fill="none" stroke="#161616" stroke-width="0.3" stroke-miterlimit="10" d="M26.3,25.9L26.3,25.9l0.7-1.4c0,0,0-0.1,0-0.1
			c0-0.2-0.1-0.3-0.3-0.3h-1.5c0,0-0.1,0-0.1,0c-0.1,0.1-0.2,0.2-0.1,0.4l0,0l0,0l0.7,1.3l0,0.1l0,0l0,0"/>
		<path fill="none" stroke="#161616" stroke-width="0.3" stroke-miterlimit="10" d="M25.7,25.9C25.6,25.9,25.7,26,25.7,25.9
			L25.7,25.9l-1,4c0,0,0,0.1,0,0.1c0,0.2,0.1,0.3,0.3,0.3H27c0,0,0,0,0.1,0c0.1,0,0.2-0.2,0.2-0.3l0,0l-1-4l0,0l0,0"/>
	</g>
	<path fill="none" stroke="#161616" stroke-width="0.3" stroke-miterlimit="10" d="M20.4,26.5"/>
	<path fill="none" stroke="#161616" stroke-width="0.3" stroke-miterlimit="10" d="M21.1,23.1c-1.1,0.5-2.6,1.6-3,2.8l0,0
		c0,0-0.9,2.5-0.9,4v0.3h0.3h4.8c0,0-0.4,0-0.4,0"/>
	<path fill="none" stroke="#161616" stroke-width="0.3" stroke-miterlimit="10" d="M24.5,30.2h-2.3c0-0.1-0.1-0.1-0.1-0.2L20.6,27
		c0-0.1,0-0.1,0-0.2h0l0.1-0.7l-0.6-0.5c-0.1-0.1-0.1-0.2-0.1-0.3l0,0l0.9-2c0,0,0-0.1,0-0.1c0.8-0.3,1.9-0.4,2.8-0.5l0.1,0l0,0
		c-0.1,0.2-0.2,0.6-0.2,0.7c-0.3,0.9-1,3.5,0.8,5.9l-0.2,0.6c0,0,0,0.1,0,0.2C24.4,30.1,24.4,30.2,24.5,30.2z"/>
	<path fill="none" stroke="#161616" stroke-width="0.3" stroke-miterlimit="10" d="M30.2,30.2c0,0.1-0.6,0-0.6,0h4.9h0.3V30
		c0-1.5-0.9-4-0.9-4l0,0c-0.4-1.3-2-2.3-3-2.8"/>
	<path fill="none" stroke="#161616" stroke-width="0.3" stroke-miterlimit="10" d="M31.6,26.5"/>
	<path fill="none" stroke="#161616" stroke-width="0.3" stroke-miterlimit="10" d="M32,24.9"/>
	<path fill="none" stroke="#161616" stroke-width="0.3" stroke-miterlimit="10" d="M27.5,30.2h2.3c0-0.1,0.1-0.1,0.1-0.2l1.4-3.1
		c0-0.1,0-0.1,0-0.2h0l-0.1-0.7l0.6-0.5c0.1-0.1,0.1-0.2,0.1-0.3l0,0l-0.9-2c0,0,0-0.1,0-0.1c-0.8-0.3-1.9-0.4-2.8-0.5l-0.1,0l0,0
		c0.1,0.2,0.2,0.6,0.2,0.7c0.3,0.9,1,3.5-0.8,5.9l0.2,0.6c0,0,0,0.1,0,0.2C27.6,30.1,27.5,30.2,27.5,30.2z"/>
</g>
</svg>
