<?xml version="1.0" encoding="utf-8"?>
<!-- Generator: Adobe Illustrator 18.1.1, SVG Export Plug-In . SVG Version: 6.00 Build 0)  -->
<svg version="1.1" id="Layer_1" xmlns="http://www.w3.org/2000/svg" xmlns:xlink="http://www.w3.org/1999/xlink" x="0px" y="0px"
	 viewBox="0 0 40 40" enable-background="new 0 0 40 40" xml:space="preserve">
<g id="Layer_2_8_">
	<g id="Ebene_8_3_">
		<line fill="none" stroke="#D5261E" stroke-width="0.3" stroke-miterlimit="10" x1="3.1" y1="29.4" x2="14.3" y2="29.4"/>
		<line fill="none" stroke="#D5261E" stroke-width="0.3" stroke-miterlimit="10" x1="3.4" y1="22.7" x2="14.6" y2="22.7"/>
		<line fill="none" stroke="#D5261E" stroke-width="0.3" stroke-miterlimit="10" x1="7" y1="26" x2="11.3" y2="26"/>
		<line fill="none" stroke="#D5261E" stroke-width="0.3" stroke-miterlimit="10" x1="3.1" y1="26" x2="5.3" y2="26"/>
		<circle fill="none" stroke="#161616" stroke-width="0.3" stroke-miterlimit="10" cx="6.2" cy="26" r="0.8"/>
		<line fill="none" stroke="#D5261E" stroke-width="0.3" stroke-miterlimit="10" x1="9.6" y1="33.3" x2="15.7" y2="33.3"/>
		<line fill="none" stroke="#D5261E" stroke-width="0.3" stroke-miterlimit="10" x1="3.1" y1="33.3" x2="7.8" y2="33.3"/>
		<circle fill="none" stroke="#161616" stroke-width="0.3" stroke-miterlimit="10" cx="8.6" cy="33.3" r="0.8"/>
		<path fill="none" stroke="#D5261E" stroke-width="0.3" stroke-miterlimit="10" d="M0.7,18V5.1c0-0.4,0.3-0.8,0.8-0.8h16.8"/>
		<path fill="none" stroke="#D5261E" stroke-width="0.3" stroke-miterlimit="10" d="M24.7,12.4v23.4c0,0.4-0.3,0.8-0.8,0.8l0,0H1.4
			c-0.4,0-0.8-0.3-0.8-0.8l0,0V16.2"/>
		<path fill="none" stroke="#D5261E" stroke-width="0.3" stroke-miterlimit="10" d="M24.7,10.7V13"/>
		<path fill="none" stroke="#D5261E" stroke-width="0.3" stroke-miterlimit="10" d="M24.5,10.7h-5.3c-0.4,0-0.8-0.3-0.8-0.8l0,0V4.3
			"/>
		<path fill="none" stroke="#D5261E" stroke-width="0.3" stroke-miterlimit="10" d="M24.7,10.7l-6.3-6.3"/>
		<path fill="none" stroke="#161616" stroke-width="0.3" stroke-miterlimit="10" d="M14.7,28.9c-0.3,0.3-0.2,0.9,0.1,1.1
			c0.3,0.3,0.9,0.2,1.1-0.1c0.3-0.3,0.2-0.9-0.1-1.1l0,0C15.5,28.5,15,28.6,14.7,28.9z"/>
	</g>
</g>
<path fill="none" stroke="#161616" stroke-width="0.3" stroke-miterlimit="10" d="M2,22.2c-0.3,0.3-0.3,0.8,0,1.1s0.9,0.2,1.1-0.1
	c0.3-0.3,0.2-0.9-0.1-1.1l0,0C2.8,21.8,2.2,21.8,2,22.2z"/>
<circle fill="#FFFFFF" stroke="#050505" stroke-width="0.3" stroke-miterlimit="10" cx="28.4" cy="23.5" r="11.1"/>
<polygon fill="none" stroke="#D5261E" stroke-width="0.3" stroke-linejoin="round" stroke-miterlimit="10" points="28.4,15.3 
	21,28.1 35.8,28.1 28.4,15.3 21,28.1 35.8,28.1 "/>
<g>
	<path fill="#D5261E" d="M28,25.3c0-0.2,0.2-0.4,0.4-0.4c0.2,0,0.4,0.2,0.4,0.4c0,0.2-0.2,0.4-0.4,0.4C28.1,25.7,28,25.6,28,25.3z
		 M28.1,24.4L28,21.3h0.6l-0.1,3.1H28.1z"/>
</g>
<g>
	<path fill="none" stroke="#161616" stroke-width="0.3" stroke-miterlimit="10" d="M34.9,32.5"/>
</g>
<g>
	<path fill="none" stroke="#161616" stroke-width="0.3" stroke-miterlimit="10" d="M11,13.9l0.1-0.1c0.2-0.1,0.8-0.7,0.3-1.3
		c0-0.4,0-0.8-0.1-1.2s-0.3-0.7-0.6-1C10.4,10.1,9.8,10,9.3,10s-1,0.2-1.3,0.5c-0.3,0.2-0.4,0.6-0.5,0.9c-0.1,0.3-0.1,0.7,0,1.1
		c-0.5,0.6,0.1,1.2,0.3,1.3c0,0,0.1,0,0.1,0.1c0.3,0.8,0.9,1.4,1.5,1.4C10.1,15.3,10.7,14.7,11,13.9z"/>
	<path fill="none" stroke="#161616" stroke-width="0.3" stroke-miterlimit="10" d="M6.5,17.1"/>
	<path fill="none" stroke="#161616" stroke-width="0.3" stroke-miterlimit="10" d="M6.9,15.3c-0.6,0.3-1.4,0.8-1.6,1.5l0,0
		c0,0-0.5,1.3-0.5,2.1V19h0.1h2.5H7.2"/>
	<path fill="none" stroke="#161616" stroke-width="0.3" stroke-miterlimit="10" d="M8.6,19.1H7.4V19l-0.8-1.6v-0.1l0,0l0.1-0.4
		l-0.3-0.3c0,0-0.1-0.1,0-0.2l0,0l0.5-1.1c0,0,0,0,0-0.1c0.4-0.1,1-0.2,1.5-0.3h0.1l0,0c0,0.1-0.1,0.3-0.1,0.4
		c-0.2,0.5-0.5,1.9,0.4,3.1l-0.1,0.3v0.1C8.6,19,8.6,19,8.6,19.1z"/>
	<path fill="none" stroke="#161616" stroke-width="0.3" stroke-miterlimit="10" d="M11.7,19.1h-0.3H14h0.1V19c0-0.8-0.5-2.1-0.5-2.1
		l0,0c-0.2-0.7-1-1.2-1.6-1.5"/>
	<path fill="none" stroke="#161616" stroke-width="0.3" stroke-miterlimit="10" d="M12.4,17.1"/>
	<path fill="none" stroke="#161616" stroke-width="0.3" stroke-miterlimit="10" d="M12.6,16.3"/>
	<path fill="none" stroke="#161616" stroke-width="0.3" stroke-miterlimit="10" d="M10.2,19.1h1.2V19l0.8-1.6v-0.1l0,0l-0.1-0.4
		l0.3-0.3c0,0,0.1-0.1,0-0.2l0,0l-0.5-1.1c0,0,0,0,0-0.1c-0.4-0.1-1-0.2-1.5-0.3h-0.1l0,0c0,0.1,0.1,0.3,0.1,0.4
		c0.2,0.5,0.5,1.9-0.4,3.1l0.1,0.3v0.1C10.3,19,10.3,19,10.2,19.1z"/>
</g>
<path fill="none" stroke="#D5261E" stroke-width="0.3" stroke-miterlimit="10" d="M3.4,8.9h12.1c0.4,0,0.7,0.4,0.7,0.9v8.3
	c0,0.5-0.3,0.9-0.7,0.9H3.4c-0.4,0-0.7-0.4-0.7-0.9V9.8C2.8,9.3,3,8.9,3.4,8.9z"/>
</svg>
