<?xml version="1.0" encoding="utf-8"?>
<!-- Generator: Adobe Illustrator 18.1.1, SVG Export Plug-In . SVG Version: 6.00 Build 0)  -->
<svg version="1.1" id="Layer_1" xmlns="http://www.w3.org/2000/svg" xmlns:xlink="http://www.w3.org/1999/xlink" x="0px" y="0px"
	 viewBox="0 0 40 40" enable-background="new 0 0 40 40" xml:space="preserve">
<path fill="none" stroke="#1575BA" stroke-width="0.3" stroke-miterlimit="10" d="M4.6,22.3c-1.1,0-2.3,0-3.4,0
	c-0.3,0-0.4,0-0.4,0.4c0.1,2.5,0.8,4.9,2.1,7C3,29.9,3.1,30,3.3,29.9c1.3,0,2.7,0,4,0c0.2,0,0.3-0.1,0.4-0.3
	c0.2-0.6,0.6-1.1,1.1-1.4C9,28.2,9,28.1,9,27.9c-0.3-1.7-0.5-3.5-0.5-5.2c0-0.3-0.1-0.3-0.3-0.3C7,22.3,5.8,22.3,4.6,22.3z"/>
<path fill="none" stroke="#1575BA" stroke-width="0.3" stroke-miterlimit="10" d="M23.5,13.9c0.5,1.8,0.8,3.6,0.9,5.4
	c0,0.2,0.1,0.2,0.2,0.2c0.9,0.2,1.5,0.8,1.8,1.7c0.1,0.2,0.2,0.2,0.3,0.2c1.7,0,3.4,0,5.2,0c0.3,0,0.3-0.1,0.3-0.3
	c-0.1-2.5-0.8-4.8-2-7c-0.1-0.2-0.2-0.3-0.5-0.3c-0.9,0-1.8,0-2.7,0C25.8,13.9,24.7,13.9,23.5,13.9z"/>
<path fill="none" stroke="#1575BA" stroke-width="0.3" stroke-miterlimit="10" d="M26.8,29.9c1,0,1.9,0,2.9,0c0.2,0,0.4-0.1,0.5-0.3
	c1.2-2.2,1.9-4.5,2-7c0-0.2,0-0.3-0.3-0.3c-1.7,0-3.4,0-5.2,0c-0.2,0-0.3,0-0.3,0.2c-0.3,0.9-0.8,1.5-1.7,1.7
	c-0.2,0.1-0.3,0.1-0.3,0.3c-0.1,1.7-0.4,3.4-0.8,5.1c-0.1,0.2,0,0.3,0.2,0.3C24.8,29.9,25.8,29.9,26.8,29.9z"/>
<path fill="none" stroke="#1575BA" stroke-width="0.3" stroke-miterlimit="10" d="M9.4,13.9c-1.4,0-2.8,0-4.2,0
	c-0.2,0-0.2,0.1-0.2,0.2c-0.4,1.3-1.4,1.9-2.8,1.7c-0.2,0-0.3,0-0.4,0.2c-0.7,1.7-1,3.4-1.1,5.2c0,0.2,0,0.3,0.3,0.3
	c2.4,0,4.7,0,7.1,0c0.3,0,0.3-0.1,0.3-0.3c0-0.8,0.1-1.6,0.1-2.5C8.8,17.1,9,15.5,9.4,13.9z"/>
<path fill="none" stroke="#1575BA" stroke-width="0.3" stroke-miterlimit="10" d="M16.1,17.8c0-1.2,0-2.3,0-3.5
	c0-0.3-0.1-0.3-0.3-0.3c-1.7,0-3.4,0-5.2,0c-0.3,0-0.4,0.1-0.4,0.3c-0.6,2.3-0.9,4.6-0.9,7c0,0.3,0.1,0.3,0.3,0.3c2.1,0,4.1,0,6.2,0
	c0.2,0,0.3-0.1,0.3-0.3C16.1,20.1,16.1,18.9,16.1,17.8z"/>
<path fill="none" stroke="#1575BA" stroke-width="0.3" stroke-miterlimit="10" d="M16.9,26.1c0,1.2,0,2.3,0,3.5
	c0,0.3,0.1,0.4,0.4,0.4c1.7,0,3.4,0,5.1,0c0.3,0,0.4-0.1,0.4-0.3c0.4-1.6,0.7-3.3,0.8-5c0-0.2,0-0.3-0.3-0.4
	c-0.8-0.3-1.3-0.8-1.5-1.6c-0.1-0.2-0.2-0.3-0.4-0.3c-1.4,0-2.8,0-4.2,0c-0.3,0-0.4,0.1-0.4,0.3C16.9,23.8,16.9,25,16.9,26.1z"/>
<path fill="none" stroke="#1575BA" stroke-width="0.3" stroke-miterlimit="10" d="M16.9,17.7c0,1.2,0,2.3,0,3.5c0,0.2,0,0.3,0.3,0.3
	c1.4,0,2.8,0,4.2,0c0.2,0,0.3-0.1,0.4-0.3c0.2-0.8,0.7-1.3,1.5-1.6c0.2-0.1,0.3-0.2,0.3-0.4c-0.1-1.7-0.4-3.4-0.8-5
	c-0.1-0.2-0.2-0.3-0.4-0.3c-1.7,0-3.4,0-5.1,0c-0.3,0-0.4,0.1-0.4,0.4C16.9,15.4,16.9,16.6,16.9,17.7z"/>
<path fill="none" stroke="#1575BA" stroke-width="0.3" stroke-miterlimit="10" d="M16.1,26.1c0-1.2,0-2.3,0-3.5c0-0.2,0-0.3-0.3-0.3
	c-2.1,0-4.2,0-6.3,0c-0.2,0-0.3,0.1-0.3,0.3c0,1.7,0.2,3.4,0.5,5.1c0,0.2,0.1,0.3,0.3,0.3c1.1,0.1,1.9,0.7,2.2,1.7
	c0.1,0.2,0.1,0.3,0.4,0.3c1,0,2.1,0,3.1,0c0.2,0,0.3-0.1,0.3-0.3C16.1,28.5,16.1,27.3,16.1,26.1z"/>
<path fill="none" stroke="#1575BA" stroke-width="0.3" stroke-miterlimit="10" d="M29.4,30.7c-2,0-3.9,0-5.9,0
	c-0.2,0-0.3,0.1-0.4,0.3c-0.8,2.4-1.8,4.6-3.8,6.3C23.3,36.7,27.4,34,29.4,30.7z"/>
<path fill="none" stroke="#1575BA" stroke-width="0.3" stroke-miterlimit="10" d="M19.5,6.6c0.4,0.4,0.7,0.7,1,1.1
	c1.2,1.5,2,3.3,2.6,5.1c0.1,0.2,0.2,0.3,0.4,0.3c1.8,0,3.7,0,5.5,0c0.1,0,0.2,0.1,0.3-0.1C27,9.6,23.7,7.4,19.5,6.6z"/>
<path fill="none" stroke="#1575BA" stroke-width="0.3" stroke-miterlimit="10" d="M13.5,6.6c-0.1,0-0.2,0-0.3,0c-0.1,0-0.1,0-0.2,0
	C9.7,7.4,7,9,4.7,11.6c-0.2,0.2-0.2,0.3,0,0.6C4.9,12.3,5,12.6,5,12.8c0,0.2,0.1,0.3,0.4,0.3c1.3,0,2.6,0,4,0c0.2,0,0.3-0.1,0.4-0.3
	C10.5,10.5,11.5,8.3,13.5,6.6z"/>
<path fill="none" stroke="#1575BA" stroke-width="0.3" stroke-miterlimit="10" d="M16.9,34.2c0,1,0,2.1,0,3.1c0,0.3,0.1,0.4,0.4,0.3
	c1-0.2,1.7-0.8,2.4-1.5c1.3-1.5,2.1-3.2,2.8-5.1c0.1-0.3-0.1-0.2-0.2-0.2c-1.7,0-3.3,0-5,0c-0.3,0-0.3,0.1-0.3,0.3
	C16.9,32.1,16.9,33.1,16.9,34.2z"/>
<path fill="none" stroke="#1575BA" stroke-width="0.3" stroke-miterlimit="10" d="M16.1,34.2c0-1,0-2.1,0-3.1c0-0.2-0.1-0.3-0.3-0.3
	c-1.1,0-2.1,0-3.2,0c-0.2,0-0.3,0-0.3,0.2c-0.1,0.6-0.5,1-0.9,1.3c-0.2,0.1-0.2,0.2-0.1,0.4c0.5,1.1,1.1,2.1,1.8,3.1
	c0.7,0.8,1.5,1.5,2.6,1.8c0.3,0.1,0.4,0.1,0.4-0.3C16.1,36.2,16.1,35.2,16.1,34.2z"/>
<path fill="none" stroke="#1575BA" stroke-width="0.3" stroke-miterlimit="10" d="M10.5,13.1c1.8,0,3.6,0,5.3,0
	c0.2,0,0.2-0.1,0.2-0.3c0-1.5,0-2.9,0-4.4c0-0.2-0.1-0.3-0.3-0.3c-0.4-0.1-0.7-0.3-1.1-0.6C14.6,7.3,14.5,7,14.3,7
	c-0.2,0.1-0.4,0.3-0.6,0.5C12.1,9,11.2,11,10.5,13.1z"/>
<path fill="none" stroke="#1575BA" stroke-width="0.3" stroke-miterlimit="10" d="M19.7,13.1c0.8,0,1.6,0,2.4,0c0.3,0,0.4,0,0.3-0.3
	c-0.4-1.2-0.9-2.3-1.5-3.3c-0.5-0.9-1.2-1.7-2-2.4c-0.2-0.1-0.2-0.2-0.4,0c-0.3,0.5-0.8,0.8-1.4,1c-0.2,0-0.2,0.1-0.2,0.3
	c0,1.5,0,2.9,0,4.4c0,0.2,0.1,0.3,0.3,0.3C18,13.1,18.8,13.1,19.7,13.1z"/>
<path fill="none" stroke="#1575BA" stroke-width="0.3" stroke-miterlimit="10" d="M13.5,37.3c-1.4-1.2-2.3-2.7-3-4.3
	c-0.1-0.2-0.1-0.2-0.3-0.2c-1.3,0-2.1-0.5-2.5-1.8c0-0.1-0.1-0.2-0.2-0.2c-1.3,0-2.6,0-3.9,0C6,34.3,9.3,36.5,13.5,37.3z"/>
<path fill="none" stroke="#030303" stroke-width="0.3" stroke-miterlimit="10" d="M16.5,7.4c0.9,0,1.6-0.7,1.6-1.6
	c0-0.9-0.7-1.6-1.6-1.6c-0.9,0-1.6,0.7-1.6,1.6C14.9,6.7,15.6,7.4,16.5,7.4z"/>
<path fill="none" stroke="#030303" stroke-width="0.3" stroke-miterlimit="10" d="M2.8,11.9c-0.9,0-1.6,0.7-1.6,1.6
	c0,0.9,0.7,1.6,1.6,1.6c0.9,0,1.6-0.7,1.6-1.6C4.4,12.7,3.7,11.9,2.8,11.9z"/>
<path fill="none" stroke="#030303" stroke-width="0.3" stroke-miterlimit="10" d="M22.5,21.9c0,0.9,0.7,1.6,1.6,1.6
	c0.9,0,1.6-0.7,1.6-1.6c0-0.9-0.7-1.6-1.6-1.6C23.2,20.3,22.5,21,22.5,21.9z"/>
<path fill="none" stroke="#030303" stroke-width="0.3" stroke-miterlimit="10" d="M8.4,30.3c0,0.9,0.7,1.6,1.6,1.6
	c0.9,0,1.6-0.7,1.6-1.6c0-0.9-0.7-1.6-1.6-1.6C9.1,28.7,8.4,29.4,8.4,30.3z"/>
<circle fill="#FFFFFF" stroke="#010101" stroke-width="0.3" stroke-miterlimit="10" cx="29.5" cy="23.5" r="10"/>
<polygon fill="none" stroke="#1575BA" stroke-width="0.3" stroke-linejoin="round" stroke-miterlimit="10" points="29.5,16.3 
	23.3,27.1 35.7,27.1 29.5,16.3 23.3,27.1 35.7,27.1 "/>
<g>
	<path fill="#1575BA" d="M29.2,24.8c0-0.2,0.1-0.3,0.3-0.3c0.2,0,0.3,0.1,0.3,0.3c0,0.2-0.1,0.3-0.3,0.3
		C29.3,25.1,29.2,25,29.2,24.8z M29.3,24l-0.1-2.7h0.5L29.7,24H29.3z"/>
</g>
</svg>
