<?xml version="1.0" encoding="UTF-8"?> <svg xmlns="http://www.w3.org/2000/svg" id="Layer_1" data-name="Layer 1" viewBox="0 0 180 171"><defs><style>.cls-1{fill:#39485a;}.cls-2{fill:#02a3d6;}.cls-3{fill:#fff;}.cls-4{fill:#ff927d;}</style></defs><title>icons</title><path class="cls-1" d="M180,151.4c0,2.53-1.75,3.68-3.91,2.57L84.94,108.59A8.06,8.06,0,0,1,81,102V19.6c0-2.53,1.75-3.68,3.91-2.57l91.15,45.38A8.06,8.06,0,0,1,180,69Z"></path><path class="cls-2" d="M103.61,40.13l-16.5-8.37a1,1,0,0,1-.48-.86c0-.35.22-.51.48-.38l16.5,8.37a1,1,0,0,1,.48.86C104.09,40.1,103.87,40.26,103.61,40.13Z"></path><path class="cls-2" d="M103.61,44.33,87.11,36a1.07,1.07,0,0,1-.48-.87c0-.34.22-.51.48-.38l16.5,8.37a1.06,1.06,0,0,1,.48.87C104.09,44.3,103.87,44.47,103.61,44.33Z"></path><path class="cls-3" d="M97.25,45.31,87.11,40.17a1.06,1.06,0,0,1-.48-.87c0-.34.22-.51.48-.37l10.14,5.14a1.06,1.06,0,0,1,.49.87C97.74,45.28,97.52,45.45,97.25,45.31Z"></path><path class="cls-3" d="M97.25,49.55,87.11,44.41a1.06,1.06,0,0,1-.48-.87c0-.34.22-.51.48-.37l10.14,5.14a1.06,1.06,0,0,1,.49.87C97.74,49.52,97.52,49.69,97.25,49.55Z"></path><path class="cls-3" d="M97.25,53.92,87.11,48.78a1.06,1.06,0,0,1-.48-.86c0-.35.22-.52.48-.38l10.14,5.14a1.06,1.06,0,0,1,.49.87C97.74,53.89,97.52,54.06,97.25,53.92Z"></path><path class="cls-2" d="M103.61,64.63l-16.5-8.36a1.07,1.07,0,0,1-.48-.87c0-.34.22-.51.48-.38l16.5,8.37a1.06,1.06,0,0,1,.48.87C104.09,64.6,103.87,64.77,103.61,64.63Z"></path><path class="cls-3" d="M97.25,65.86,87.11,60.71a1,1,0,0,1-.48-.86c0-.35.22-.51.48-.38l10.14,5.14a1.06,1.06,0,0,1,.49.87C97.74,65.82,97.52,66,97.25,65.86Z"></path><path class="cls-3" d="M97.25,70.09,87.11,65a1.07,1.07,0,0,1-.48-.87c0-.34.22-.51.48-.37l10.14,5.14a1,1,0,0,1,.49.86C97.74,70.06,97.52,70.22,97.25,70.09Z"></path><path class="cls-3" d="M97.25,74.3,87.11,69.15a1,1,0,0,1-.48-.86c0-.34.22-.51.48-.38l10.14,5.15a1,1,0,0,1,.49.86C97.74,74.26,97.52,74.43,97.25,74.3Z"></path><path class="cls-3" d="M103.61,95.74l-16.5-8.37a1,1,0,0,1-.48-.86c0-.35.22-.51.48-.38l16.5,8.37a1,1,0,0,1,.48.86C104.09,95.71,103.87,95.87,103.61,95.74Z"></path><path class="cls-4" d="M103.61,91.14l-16.5-8.37a1.06,1.06,0,0,1-.48-.87c0-.34.22-.51.48-.37l16.5,8.36a1.07,1.07,0,0,1,.48.87C104.09,91.1,103.87,91.27,103.61,91.14Z"></path><path class="cls-4" d="M103.61,86.68l-16.5-8.36a1.06,1.06,0,0,1-.48-.87c0-.34.22-.51.48-.37l16.5,8.36a1.07,1.07,0,0,1,.48.87C104.09,86.65,103.87,86.82,103.61,86.68Z"></path><path class="cls-3" d="M103.61,99.94l-16.5-8.36a1.07,1.07,0,0,1-.48-.87c0-.34.22-.51.48-.37l16.5,8.36a1.06,1.06,0,0,1,.48.87C104.09,99.91,103.87,100.08,103.61,99.94Z"></path><path class="cls-3" d="M97.25,100.92,87.11,95.78a1.06,1.06,0,0,1-.48-.87c0-.34.22-.51.48-.37l10.14,5.14a1.06,1.06,0,0,1,.49.87C97.74,100.89,97.52,101.06,97.25,100.92Z"></path><path class="cls-3" d="M145,70.25a.65.65,0,0,1-.61-.41L141.55,63a.7.7,0,0,1,0-.53.71.71,0,0,1,.39-.35l5.31-1.87a.66.66,0,0,1,.84.4.67.67,0,0,1-.4.85L143,63.09l2.57,6.24a.67.67,0,0,1-.36.87A.7.7,0,0,1,145,70.25Z"></path><path class="cls-3" d="M147.58,105.42a15.94,15.94,0,0,1-7-1.82c-4.76-2.37-9.23-6.79-12.59-12.45a35.21,35.21,0,0,1-5.19-17.53c0-5.11,1.55-9.32,4.37-11.85a10.46,10.46,0,0,1,8.38-2.53.66.66,0,1,1-.14,1.32,9.18,9.18,0,0,0-7.36,2.2c-2.53,2.28-3.93,6.13-3.93,10.86,0,11.2,7.65,24.12,17.05,28.8,4.24,2.11,8.26,2.23,11.3.34,3.28-2.05,5.17-6.35,5.17-11.8,0-10.07-6.31-21.85-14.68-27.41a.67.67,0,0,1-.19-.92.67.67,0,0,1,.92-.19A36.9,36.9,0,0,1,158.94,91c0,6-2.06,10.6-5.8,12.92A10.32,10.32,0,0,1,147.58,105.42Z"></path><polygon class="cls-2" points="174.6 131.63 169.64 129.11 169.64 127.44 174.6 129.96 174.6 131.63"></polygon><polygon class="cls-2" points="135.84 111.93 111.4 99.5 111.4 97.83 135.84 110.25 135.84 111.93"></polygon><polygon class="cls-2" points="164.72 126.61 140.86 114.48 140.86 112.8 164.72 124.93 164.72 126.61"></polygon><polygon class="cls-2" points="155.53 126.81 111.4 104.37 111.4 102.7 155.53 125.14 155.53 126.81"></polygon><polygon class="cls-2" points="172.99 135.69 160.55 129.36 160.55 127.69 172.99 134.01 172.99 135.69"></polygon><polygon class="cls-2" points="174.6 141.37 159.8 133.85 159.8 132.18 174.6 139.7 174.6 141.37"></polygon><polygon class="cls-2" points="116.16 111.66 111.4 109.25 111.4 107.57 116.16 109.99 116.16 111.66"></polygon><polygon class="cls-2" points="154.87 131.35 121.17 114.21 121.17 112.54 154.87 129.67 154.87 131.35"></polygon></svg> 